%TF.GenerationSoftware,KiCad,Pcbnew,8.0.2*%
%TF.CreationDate,2024-06-26T18:14:25+07:00*%
%TF.ProjectId,capacitor_100nF_100V_Panel,63617061-6369-4746-9f72-5f3130306e46,rev?*%
%TF.SameCoordinates,Original*%
%TF.FileFunction,Copper,L1,Top*%
%TF.FilePolarity,Positive*%
%FSLAX46Y46*%
G04 Gerber Fmt 4.6, Leading zero omitted, Abs format (unit mm)*
G04 Created by KiCad (PCBNEW 8.0.2) date 2024-06-26 18:14:25*
%MOMM*%
%LPD*%
G01*
G04 APERTURE LIST*
G04 Aperture macros list*
%AMRoundRect*
0 Rectangle with rounded corners*
0 $1 Rounding radius*
0 $2 $3 $4 $5 $6 $7 $8 $9 X,Y pos of 4 corners*
0 Add a 4 corners polygon primitive as box body*
4,1,4,$2,$3,$4,$5,$6,$7,$8,$9,$2,$3,0*
0 Add four circle primitives for the rounded corners*
1,1,$1+$1,$2,$3*
1,1,$1+$1,$4,$5*
1,1,$1+$1,$6,$7*
1,1,$1+$1,$8,$9*
0 Add four rect primitives between the rounded corners*
20,1,$1+$1,$2,$3,$4,$5,0*
20,1,$1+$1,$4,$5,$6,$7,0*
20,1,$1+$1,$6,$7,$8,$9,0*
20,1,$1+$1,$8,$9,$2,$3,0*%
G04 Aperture macros list end*
%TA.AperFunction,ComponentPad*%
%ADD10C,4.000000*%
%TD*%
%TA.AperFunction,SMDPad,CuDef*%
%ADD11RoundRect,0.250000X-0.650000X0.325000X-0.650000X-0.325000X0.650000X-0.325000X0.650000X0.325000X0*%
%TD*%
%TA.AperFunction,Conductor*%
%ADD12C,1.000000*%
%TD*%
G04 APERTURE END LIST*
D10*
%TO.P,J2,1,Pin_1*%
%TO.N,Board_5-Net-(J2-Pin_1)*%
X65000000Y-36500500D03*
%TD*%
D11*
%TO.P,C1,1*%
%TO.N,Board_14-Net-(J1-Pin_1)*%
X77000000Y-56525500D03*
%TO.P,C1,2*%
%TO.N,Board_14-Net-(J2-Pin_1)*%
X77000000Y-59475500D03*
%TD*%
D10*
%TO.P,J1,1,Pin_1*%
%TO.N,Board_9-Net-(J1-Pin_1)*%
X17000000Y-45500500D03*
%TD*%
D11*
%TO.P,C1,1*%
%TO.N,Board_13-Net-(J1-Pin_1)*%
X65000000Y-56525500D03*
%TO.P,C1,2*%
%TO.N,Board_13-Net-(J2-Pin_1)*%
X65000000Y-59475500D03*
%TD*%
%TO.P,C1,1*%
%TO.N,Board_4-Net-(J1-Pin_1)*%
X53000000Y-22525500D03*
%TO.P,C1,2*%
%TO.N,Board_4-Net-(J2-Pin_1)*%
X53000000Y-25475500D03*
%TD*%
%TO.P,C1,1*%
%TO.N,Board_1-Net-(J1-Pin_1)*%
X17000000Y-22525500D03*
%TO.P,C1,2*%
%TO.N,Board_1-Net-(J2-Pin_1)*%
X17000000Y-25475500D03*
%TD*%
%TO.P,C1,1*%
%TO.N,Board_3-Net-(J1-Pin_1)*%
X41000000Y-22525500D03*
%TO.P,C1,2*%
%TO.N,Board_3-Net-(J2-Pin_1)*%
X41000000Y-25475500D03*
%TD*%
D10*
%TO.P,J2,1,Pin_1*%
%TO.N,Board_12-Net-(J2-Pin_1)*%
X53000000Y-70500500D03*
%TD*%
%TO.P,J1,1,Pin_1*%
%TO.N,Board_11-Net-(J1-Pin_1)*%
X41000000Y-45500500D03*
%TD*%
%TO.P,J2,1,Pin_1*%
%TO.N,Board_11-Net-(J2-Pin_1)*%
X41000000Y-70500500D03*
%TD*%
%TO.P,J2,1,Pin_1*%
%TO.N,Board_8-Net-(J2-Pin_1)*%
X5000000Y-70500500D03*
%TD*%
%TO.P,J2,1,Pin_1*%
%TO.N,Board_0-Net-(J2-Pin_1)*%
X5000000Y-36500500D03*
%TD*%
%TO.P,J2,1,Pin_1*%
%TO.N,Board_10-Net-(J2-Pin_1)*%
X29000000Y-70500500D03*
%TD*%
%TO.P,J1,1,Pin_1*%
%TO.N,Board_13-Net-(J1-Pin_1)*%
X65000000Y-45500500D03*
%TD*%
D11*
%TO.P,C1,1*%
%TO.N,Board_8-Net-(J1-Pin_1)*%
X5000000Y-56525500D03*
%TO.P,C1,2*%
%TO.N,Board_8-Net-(J2-Pin_1)*%
X5000000Y-59475500D03*
%TD*%
D10*
%TO.P,J1,1,Pin_1*%
%TO.N,Board_4-Net-(J1-Pin_1)*%
X53000000Y-11500500D03*
%TD*%
%TO.P,J2,1,Pin_1*%
%TO.N,Board_6-Net-(J2-Pin_1)*%
X77000000Y-36500500D03*
%TD*%
%TO.P,J2,1,Pin_1*%
%TO.N,Board_13-Net-(J2-Pin_1)*%
X65000000Y-70500500D03*
%TD*%
%TO.P,J2,1,Pin_1*%
%TO.N,Board_15-Net-(J2-Pin_1)*%
X89000000Y-70500500D03*
%TD*%
%TO.P,J1,1,Pin_1*%
%TO.N,Board_6-Net-(J1-Pin_1)*%
X77000000Y-11500500D03*
%TD*%
D11*
%TO.P,C1,1*%
%TO.N,Board_10-Net-(J1-Pin_1)*%
X29000000Y-56525500D03*
%TO.P,C1,2*%
%TO.N,Board_10-Net-(J2-Pin_1)*%
X29000000Y-59475500D03*
%TD*%
D10*
%TO.P,J2,1,Pin_1*%
%TO.N,Board_9-Net-(J2-Pin_1)*%
X17000000Y-70500500D03*
%TD*%
%TO.P,J1,1,Pin_1*%
%TO.N,Board_0-Net-(J1-Pin_1)*%
X5000000Y-11500500D03*
%TD*%
%TO.P,J1,1,Pin_1*%
%TO.N,Board_3-Net-(J1-Pin_1)*%
X41000000Y-11500500D03*
%TD*%
%TO.P,J1,1,Pin_1*%
%TO.N,Board_10-Net-(J1-Pin_1)*%
X29000000Y-45500500D03*
%TD*%
D11*
%TO.P,C1,1*%
%TO.N,Board_11-Net-(J1-Pin_1)*%
X41000000Y-56525500D03*
%TO.P,C1,2*%
%TO.N,Board_11-Net-(J2-Pin_1)*%
X41000000Y-59475500D03*
%TD*%
D10*
%TO.P,J1,1,Pin_1*%
%TO.N,Board_14-Net-(J1-Pin_1)*%
X77000000Y-45500500D03*
%TD*%
%TO.P,J1,1,Pin_1*%
%TO.N,Board_2-Net-(J1-Pin_1)*%
X29000000Y-11500500D03*
%TD*%
%TO.P,J2,1,Pin_1*%
%TO.N,Board_14-Net-(J2-Pin_1)*%
X77000000Y-70500500D03*
%TD*%
%TO.P,J1,1,Pin_1*%
%TO.N,Board_5-Net-(J1-Pin_1)*%
X65000000Y-11500500D03*
%TD*%
%TO.P,J2,1,Pin_1*%
%TO.N,Board_3-Net-(J2-Pin_1)*%
X41000000Y-36500500D03*
%TD*%
%TO.P,J2,1,Pin_1*%
%TO.N,Board_2-Net-(J2-Pin_1)*%
X29000000Y-36500500D03*
%TD*%
D11*
%TO.P,C1,1*%
%TO.N,Board_9-Net-(J1-Pin_1)*%
X17000000Y-56525500D03*
%TO.P,C1,2*%
%TO.N,Board_9-Net-(J2-Pin_1)*%
X17000000Y-59475500D03*
%TD*%
%TO.P,C1,1*%
%TO.N,Board_5-Net-(J1-Pin_1)*%
X65000000Y-22525500D03*
%TO.P,C1,2*%
%TO.N,Board_5-Net-(J2-Pin_1)*%
X65000000Y-25475500D03*
%TD*%
%TO.P,C1,1*%
%TO.N,Board_2-Net-(J1-Pin_1)*%
X29000000Y-22525500D03*
%TO.P,C1,2*%
%TO.N,Board_2-Net-(J2-Pin_1)*%
X29000000Y-25475500D03*
%TD*%
%TO.P,C1,1*%
%TO.N,Board_6-Net-(J1-Pin_1)*%
X77000000Y-22525500D03*
%TO.P,C1,2*%
%TO.N,Board_6-Net-(J2-Pin_1)*%
X77000000Y-25475500D03*
%TD*%
D10*
%TO.P,J1,1,Pin_1*%
%TO.N,Board_1-Net-(J1-Pin_1)*%
X17000000Y-11500500D03*
%TD*%
%TO.P,J2,1,Pin_1*%
%TO.N,Board_4-Net-(J2-Pin_1)*%
X53000000Y-36500500D03*
%TD*%
D11*
%TO.P,C1,1*%
%TO.N,Board_15-Net-(J1-Pin_1)*%
X89000000Y-56525500D03*
%TO.P,C1,2*%
%TO.N,Board_15-Net-(J2-Pin_1)*%
X89000000Y-59475500D03*
%TD*%
D10*
%TO.P,J1,1,Pin_1*%
%TO.N,Board_12-Net-(J1-Pin_1)*%
X53000000Y-45500500D03*
%TD*%
%TO.P,J1,1,Pin_1*%
%TO.N,Board_7-Net-(J1-Pin_1)*%
X89000000Y-11500500D03*
%TD*%
%TO.P,J2,1,Pin_1*%
%TO.N,Board_1-Net-(J2-Pin_1)*%
X17000000Y-36500500D03*
%TD*%
%TO.P,J2,1,Pin_1*%
%TO.N,Board_7-Net-(J2-Pin_1)*%
X89000000Y-36500500D03*
%TD*%
D11*
%TO.P,C1,1*%
%TO.N,Board_0-Net-(J1-Pin_1)*%
X5000000Y-22525500D03*
%TO.P,C1,2*%
%TO.N,Board_0-Net-(J2-Pin_1)*%
X5000000Y-25475500D03*
%TD*%
%TO.P,C1,1*%
%TO.N,Board_12-Net-(J1-Pin_1)*%
X53000000Y-56525500D03*
%TO.P,C1,2*%
%TO.N,Board_12-Net-(J2-Pin_1)*%
X53000000Y-59475500D03*
%TD*%
%TO.P,C1,1*%
%TO.N,Board_7-Net-(J1-Pin_1)*%
X89000000Y-22525500D03*
%TO.P,C1,2*%
%TO.N,Board_7-Net-(J2-Pin_1)*%
X89000000Y-25475500D03*
%TD*%
D10*
%TO.P,J1,1,Pin_1*%
%TO.N,Board_8-Net-(J1-Pin_1)*%
X5000000Y-45500500D03*
%TD*%
%TO.P,J1,1,Pin_1*%
%TO.N,Board_15-Net-(J1-Pin_1)*%
X89000000Y-45500500D03*
%TD*%
D12*
%TO.N,Board_15-Net-(J2-Pin_1)*%
X89000000Y-59475500D02*
X89000000Y-70500500D01*
%TO.N,Board_15-Net-(J1-Pin_1)*%
X89000000Y-56429250D02*
X89096250Y-56525500D01*
X89000000Y-56525500D02*
X89000000Y-45500500D01*
%TO.N,Board_14-Net-(J2-Pin_1)*%
X77000000Y-59475500D02*
X77000000Y-70500500D01*
%TO.N,Board_14-Net-(J1-Pin_1)*%
X77000000Y-56525500D02*
X77000000Y-45500500D01*
X77000000Y-56429250D02*
X77096250Y-56525500D01*
%TO.N,Board_13-Net-(J2-Pin_1)*%
X65000000Y-59475500D02*
X65000000Y-70500500D01*
%TO.N,Board_13-Net-(J1-Pin_1)*%
X65000000Y-56429250D02*
X65096250Y-56525500D01*
X65000000Y-56525500D02*
X65000000Y-45500500D01*
%TO.N,Board_12-Net-(J2-Pin_1)*%
X53000000Y-59475500D02*
X53000000Y-70500500D01*
%TO.N,Board_12-Net-(J1-Pin_1)*%
X53000000Y-56525500D02*
X53000000Y-45500500D01*
X53000000Y-56429250D02*
X53096250Y-56525500D01*
%TO.N,Board_11-Net-(J2-Pin_1)*%
X41000000Y-59475500D02*
X41000000Y-70500500D01*
%TO.N,Board_11-Net-(J1-Pin_1)*%
X41000000Y-56525500D02*
X41000000Y-45500500D01*
X41000000Y-56429250D02*
X41096250Y-56525500D01*
%TO.N,Board_10-Net-(J2-Pin_1)*%
X29000000Y-59475500D02*
X29000000Y-70500500D01*
%TO.N,Board_10-Net-(J1-Pin_1)*%
X29000000Y-56525500D02*
X29000000Y-45500500D01*
X29000000Y-56429250D02*
X29096250Y-56525500D01*
%TO.N,Board_9-Net-(J2-Pin_1)*%
X17000000Y-59475500D02*
X17000000Y-70500500D01*
%TO.N,Board_9-Net-(J1-Pin_1)*%
X17000000Y-56525500D02*
X17000000Y-45500500D01*
X17000000Y-56429250D02*
X17096250Y-56525500D01*
%TO.N,Board_8-Net-(J2-Pin_1)*%
X5000000Y-59475500D02*
X5000000Y-70500500D01*
%TO.N,Board_8-Net-(J1-Pin_1)*%
X5000000Y-56429250D02*
X5096250Y-56525500D01*
X5000000Y-56525500D02*
X5000000Y-45500500D01*
%TO.N,Board_7-Net-(J2-Pin_1)*%
X89000000Y-25475500D02*
X89000000Y-36500500D01*
%TO.N,Board_7-Net-(J1-Pin_1)*%
X89000000Y-22429250D02*
X89096250Y-22525500D01*
X89000000Y-22525500D02*
X89000000Y-11500500D01*
%TO.N,Board_6-Net-(J2-Pin_1)*%
X77000000Y-25475500D02*
X77000000Y-36500500D01*
%TO.N,Board_6-Net-(J1-Pin_1)*%
X77000000Y-22429250D02*
X77096250Y-22525500D01*
X77000000Y-22525500D02*
X77000000Y-11500500D01*
%TO.N,Board_5-Net-(J2-Pin_1)*%
X65000000Y-25475500D02*
X65000000Y-36500500D01*
%TO.N,Board_5-Net-(J1-Pin_1)*%
X65000000Y-22429250D02*
X65096250Y-22525500D01*
X65000000Y-22525500D02*
X65000000Y-11500500D01*
%TO.N,Board_4-Net-(J2-Pin_1)*%
X53000000Y-25475500D02*
X53000000Y-36500500D01*
%TO.N,Board_4-Net-(J1-Pin_1)*%
X53000000Y-22429250D02*
X53096250Y-22525500D01*
X53000000Y-22525500D02*
X53000000Y-11500500D01*
%TO.N,Board_3-Net-(J2-Pin_1)*%
X41000000Y-25475500D02*
X41000000Y-36500500D01*
%TO.N,Board_3-Net-(J1-Pin_1)*%
X41000000Y-22525500D02*
X41000000Y-11500500D01*
X41000000Y-22429250D02*
X41096250Y-22525500D01*
%TO.N,Board_2-Net-(J2-Pin_1)*%
X29000000Y-25475500D02*
X29000000Y-36500500D01*
%TO.N,Board_2-Net-(J1-Pin_1)*%
X29000000Y-22429250D02*
X29096250Y-22525500D01*
X29000000Y-22525500D02*
X29000000Y-11500500D01*
%TO.N,Board_1-Net-(J2-Pin_1)*%
X17000000Y-25475500D02*
X17000000Y-36500500D01*
%TO.N,Board_1-Net-(J1-Pin_1)*%
X17000000Y-22525500D02*
X17000000Y-11500500D01*
X17000000Y-22429250D02*
X17096250Y-22525500D01*
%TO.N,Board_0-Net-(J2-Pin_1)*%
X5000000Y-25475500D02*
X5000000Y-36500500D01*
%TO.N,Board_0-Net-(J1-Pin_1)*%
X5000000Y-22429250D02*
X5096250Y-22525500D01*
X5000000Y-22525500D02*
X5000000Y-11500500D01*
%TD*%
%TA.AperFunction,Conductor*%
%TO.N,Board_15-Net-(J2-Pin_1)*%
G36*
X89500464Y-66524284D02*
G01*
X89502996Y-66528069D01*
X90913987Y-69925000D01*
X90913996Y-69933955D01*
X90907670Y-69940293D01*
X90906484Y-69940712D01*
X89003302Y-70500528D01*
X88996698Y-70500528D01*
X87093515Y-69940712D01*
X87086545Y-69935090D01*
X87085593Y-69926186D01*
X87086006Y-69925016D01*
X88497004Y-66528068D01*
X88503342Y-66521743D01*
X88507809Y-66520857D01*
X89492191Y-66520857D01*
X89500464Y-66524284D01*
G37*
%TD.AperFunction*%
%TD*%
%TA.AperFunction,Conductor*%
%TO.N,Board_15-Net-(J1-Pin_1)*%
G36*
X90906485Y-46060287D02*
G01*
X90913454Y-46065909D01*
X90914406Y-46074813D01*
X90913987Y-46075999D01*
X89502996Y-49472931D01*
X89496658Y-49479257D01*
X89492191Y-49480143D01*
X88507809Y-49480143D01*
X88499536Y-49476716D01*
X88497004Y-49472931D01*
X87086011Y-46075997D01*
X87086003Y-46067044D01*
X87092329Y-46060706D01*
X87093500Y-46060292D01*
X88996699Y-45500471D01*
X89003301Y-45500471D01*
X90906485Y-46060287D01*
G37*
%TD.AperFunction*%
%TD*%
%TA.AperFunction,Conductor*%
%TO.N,Board_14-Net-(J2-Pin_1)*%
G36*
X77500464Y-66524284D02*
G01*
X77502996Y-66528069D01*
X78913987Y-69925000D01*
X78913996Y-69933955D01*
X78907670Y-69940293D01*
X78906484Y-69940712D01*
X77003302Y-70500528D01*
X76996698Y-70500528D01*
X75093515Y-69940712D01*
X75086545Y-69935090D01*
X75085593Y-69926186D01*
X75086006Y-69925016D01*
X76497004Y-66528068D01*
X76503342Y-66521743D01*
X76507809Y-66520857D01*
X77492191Y-66520857D01*
X77500464Y-66524284D01*
G37*
%TD.AperFunction*%
%TD*%
%TA.AperFunction,Conductor*%
%TO.N,Board_14-Net-(J1-Pin_1)*%
G36*
X78906485Y-46060287D02*
G01*
X78913454Y-46065909D01*
X78914406Y-46074813D01*
X78913987Y-46075999D01*
X77502996Y-49472931D01*
X77496658Y-49479257D01*
X77492191Y-49480143D01*
X76507809Y-49480143D01*
X76499536Y-49476716D01*
X76497004Y-49472931D01*
X75086011Y-46075997D01*
X75086003Y-46067044D01*
X75092329Y-46060706D01*
X75093500Y-46060292D01*
X76996699Y-45500471D01*
X77003301Y-45500471D01*
X78906485Y-46060287D01*
G37*
%TD.AperFunction*%
%TD*%
%TA.AperFunction,Conductor*%
%TO.N,Board_13-Net-(J2-Pin_1)*%
G36*
X65500464Y-66524284D02*
G01*
X65502996Y-66528069D01*
X66913987Y-69925000D01*
X66913996Y-69933955D01*
X66907670Y-69940293D01*
X66906484Y-69940712D01*
X65003302Y-70500528D01*
X64996698Y-70500528D01*
X63093515Y-69940712D01*
X63086545Y-69935090D01*
X63085593Y-69926186D01*
X63086006Y-69925016D01*
X64497004Y-66528068D01*
X64503342Y-66521743D01*
X64507809Y-66520857D01*
X65492191Y-66520857D01*
X65500464Y-66524284D01*
G37*
%TD.AperFunction*%
%TD*%
%TA.AperFunction,Conductor*%
%TO.N,Board_13-Net-(J1-Pin_1)*%
G36*
X66906485Y-46060287D02*
G01*
X66913454Y-46065909D01*
X66914406Y-46074813D01*
X66913987Y-46075999D01*
X65502996Y-49472931D01*
X65496658Y-49479257D01*
X65492191Y-49480143D01*
X64507809Y-49480143D01*
X64499536Y-49476716D01*
X64497004Y-49472931D01*
X63086011Y-46075997D01*
X63086003Y-46067044D01*
X63092329Y-46060706D01*
X63093500Y-46060292D01*
X64996699Y-45500471D01*
X65003301Y-45500471D01*
X66906485Y-46060287D01*
G37*
%TD.AperFunction*%
%TD*%
%TA.AperFunction,Conductor*%
%TO.N,Board_12-Net-(J2-Pin_1)*%
G36*
X53500464Y-66524284D02*
G01*
X53502996Y-66528069D01*
X54913987Y-69925000D01*
X54913996Y-69933955D01*
X54907670Y-69940293D01*
X54906484Y-69940712D01*
X53003302Y-70500528D01*
X52996698Y-70500528D01*
X51093515Y-69940712D01*
X51086545Y-69935090D01*
X51085593Y-69926186D01*
X51086006Y-69925016D01*
X52497004Y-66528068D01*
X52503342Y-66521743D01*
X52507809Y-66520857D01*
X53492191Y-66520857D01*
X53500464Y-66524284D01*
G37*
%TD.AperFunction*%
%TD*%
%TA.AperFunction,Conductor*%
%TO.N,Board_12-Net-(J1-Pin_1)*%
G36*
X54906485Y-46060287D02*
G01*
X54913454Y-46065909D01*
X54914406Y-46074813D01*
X54913987Y-46075999D01*
X53502996Y-49472931D01*
X53496658Y-49479257D01*
X53492191Y-49480143D01*
X52507809Y-49480143D01*
X52499536Y-49476716D01*
X52497004Y-49472931D01*
X51086011Y-46075997D01*
X51086003Y-46067044D01*
X51092329Y-46060706D01*
X51093500Y-46060292D01*
X52996699Y-45500471D01*
X53003301Y-45500471D01*
X54906485Y-46060287D01*
G37*
%TD.AperFunction*%
%TD*%
%TA.AperFunction,Conductor*%
%TO.N,Board_11-Net-(J2-Pin_1)*%
G36*
X41500464Y-66524284D02*
G01*
X41502996Y-66528069D01*
X42913987Y-69925000D01*
X42913996Y-69933955D01*
X42907670Y-69940293D01*
X42906484Y-69940712D01*
X41003302Y-70500528D01*
X40996698Y-70500528D01*
X39093515Y-69940712D01*
X39086545Y-69935090D01*
X39085593Y-69926186D01*
X39086006Y-69925016D01*
X40497004Y-66528068D01*
X40503342Y-66521743D01*
X40507809Y-66520857D01*
X41492191Y-66520857D01*
X41500464Y-66524284D01*
G37*
%TD.AperFunction*%
%TD*%
%TA.AperFunction,Conductor*%
%TO.N,Board_11-Net-(J1-Pin_1)*%
G36*
X42906485Y-46060287D02*
G01*
X42913454Y-46065909D01*
X42914406Y-46074813D01*
X42913987Y-46075999D01*
X41502996Y-49472931D01*
X41496658Y-49479257D01*
X41492191Y-49480143D01*
X40507809Y-49480143D01*
X40499536Y-49476716D01*
X40497004Y-49472931D01*
X39086011Y-46075997D01*
X39086003Y-46067044D01*
X39092329Y-46060706D01*
X39093500Y-46060292D01*
X40996699Y-45500471D01*
X41003301Y-45500471D01*
X42906485Y-46060287D01*
G37*
%TD.AperFunction*%
%TD*%
%TA.AperFunction,Conductor*%
%TO.N,Board_10-Net-(J2-Pin_1)*%
G36*
X29500464Y-66524284D02*
G01*
X29502996Y-66528069D01*
X30913987Y-69925000D01*
X30913996Y-69933955D01*
X30907670Y-69940293D01*
X30906484Y-69940712D01*
X29003302Y-70500528D01*
X28996698Y-70500528D01*
X27093515Y-69940712D01*
X27086545Y-69935090D01*
X27085593Y-69926186D01*
X27086006Y-69925016D01*
X28497004Y-66528068D01*
X28503342Y-66521743D01*
X28507809Y-66520857D01*
X29492191Y-66520857D01*
X29500464Y-66524284D01*
G37*
%TD.AperFunction*%
%TD*%
%TA.AperFunction,Conductor*%
%TO.N,Board_10-Net-(J1-Pin_1)*%
G36*
X30906485Y-46060287D02*
G01*
X30913454Y-46065909D01*
X30914406Y-46074813D01*
X30913987Y-46075999D01*
X29502996Y-49472931D01*
X29496658Y-49479257D01*
X29492191Y-49480143D01*
X28507809Y-49480143D01*
X28499536Y-49476716D01*
X28497004Y-49472931D01*
X27086011Y-46075997D01*
X27086003Y-46067044D01*
X27092329Y-46060706D01*
X27093500Y-46060292D01*
X28996699Y-45500471D01*
X29003301Y-45500471D01*
X30906485Y-46060287D01*
G37*
%TD.AperFunction*%
%TD*%
%TA.AperFunction,Conductor*%
%TO.N,Board_9-Net-(J2-Pin_1)*%
G36*
X17500464Y-66524284D02*
G01*
X17502996Y-66528069D01*
X18913987Y-69925000D01*
X18913996Y-69933955D01*
X18907670Y-69940293D01*
X18906484Y-69940712D01*
X17003302Y-70500528D01*
X16996698Y-70500528D01*
X15093515Y-69940712D01*
X15086545Y-69935090D01*
X15085593Y-69926186D01*
X15086006Y-69925016D01*
X16497004Y-66528068D01*
X16503342Y-66521743D01*
X16507809Y-66520857D01*
X17492191Y-66520857D01*
X17500464Y-66524284D01*
G37*
%TD.AperFunction*%
%TD*%
%TA.AperFunction,Conductor*%
%TO.N,Board_9-Net-(J1-Pin_1)*%
G36*
X18906485Y-46060287D02*
G01*
X18913454Y-46065909D01*
X18914406Y-46074813D01*
X18913987Y-46075999D01*
X17502996Y-49472931D01*
X17496658Y-49479257D01*
X17492191Y-49480143D01*
X16507809Y-49480143D01*
X16499536Y-49476716D01*
X16497004Y-49472931D01*
X15086011Y-46075997D01*
X15086003Y-46067044D01*
X15092329Y-46060706D01*
X15093500Y-46060292D01*
X16996699Y-45500471D01*
X17003301Y-45500471D01*
X18906485Y-46060287D01*
G37*
%TD.AperFunction*%
%TD*%
%TA.AperFunction,Conductor*%
%TO.N,Board_8-Net-(J2-Pin_1)*%
G36*
X5500464Y-66524284D02*
G01*
X5502996Y-66528069D01*
X6913987Y-69925000D01*
X6913996Y-69933955D01*
X6907670Y-69940293D01*
X6906484Y-69940712D01*
X5003302Y-70500528D01*
X4996698Y-70500528D01*
X3093515Y-69940712D01*
X3086545Y-69935090D01*
X3085593Y-69926186D01*
X3086006Y-69925016D01*
X4497004Y-66528068D01*
X4503342Y-66521743D01*
X4507809Y-66520857D01*
X5492191Y-66520857D01*
X5500464Y-66524284D01*
G37*
%TD.AperFunction*%
%TD*%
%TA.AperFunction,Conductor*%
%TO.N,Board_8-Net-(J1-Pin_1)*%
G36*
X6906485Y-46060287D02*
G01*
X6913454Y-46065909D01*
X6914406Y-46074813D01*
X6913987Y-46075999D01*
X5502996Y-49472931D01*
X5496658Y-49479257D01*
X5492191Y-49480143D01*
X4507809Y-49480143D01*
X4499536Y-49476716D01*
X4497004Y-49472931D01*
X3086011Y-46075997D01*
X3086003Y-46067044D01*
X3092329Y-46060706D01*
X3093500Y-46060292D01*
X4996699Y-45500471D01*
X5003301Y-45500471D01*
X6906485Y-46060287D01*
G37*
%TD.AperFunction*%
%TD*%
%TA.AperFunction,Conductor*%
%TO.N,Board_7-Net-(J2-Pin_1)*%
G36*
X89500464Y-32524284D02*
G01*
X89502996Y-32528069D01*
X90913987Y-35925000D01*
X90913996Y-35933955D01*
X90907670Y-35940293D01*
X90906484Y-35940712D01*
X89003302Y-36500528D01*
X88996698Y-36500528D01*
X87093515Y-35940712D01*
X87086545Y-35935090D01*
X87085593Y-35926186D01*
X87086006Y-35925016D01*
X88497004Y-32528068D01*
X88503342Y-32521743D01*
X88507809Y-32520857D01*
X89492191Y-32520857D01*
X89500464Y-32524284D01*
G37*
%TD.AperFunction*%
%TD*%
%TA.AperFunction,Conductor*%
%TO.N,Board_7-Net-(J1-Pin_1)*%
G36*
X90906485Y-12060287D02*
G01*
X90913454Y-12065909D01*
X90914406Y-12074813D01*
X90913987Y-12075999D01*
X89502996Y-15472931D01*
X89496658Y-15479257D01*
X89492191Y-15480143D01*
X88507809Y-15480143D01*
X88499536Y-15476716D01*
X88497004Y-15472931D01*
X87086011Y-12075997D01*
X87086003Y-12067044D01*
X87092329Y-12060706D01*
X87093500Y-12060292D01*
X88996699Y-11500471D01*
X89003301Y-11500471D01*
X90906485Y-12060287D01*
G37*
%TD.AperFunction*%
%TD*%
%TA.AperFunction,Conductor*%
%TO.N,Board_6-Net-(J2-Pin_1)*%
G36*
X77500464Y-32524284D02*
G01*
X77502996Y-32528069D01*
X78913987Y-35925000D01*
X78913996Y-35933955D01*
X78907670Y-35940293D01*
X78906484Y-35940712D01*
X77003302Y-36500528D01*
X76996698Y-36500528D01*
X75093515Y-35940712D01*
X75086545Y-35935090D01*
X75085593Y-35926186D01*
X75086006Y-35925016D01*
X76497004Y-32528068D01*
X76503342Y-32521743D01*
X76507809Y-32520857D01*
X77492191Y-32520857D01*
X77500464Y-32524284D01*
G37*
%TD.AperFunction*%
%TD*%
%TA.AperFunction,Conductor*%
%TO.N,Board_6-Net-(J1-Pin_1)*%
G36*
X78906485Y-12060287D02*
G01*
X78913454Y-12065909D01*
X78914406Y-12074813D01*
X78913987Y-12075999D01*
X77502996Y-15472931D01*
X77496658Y-15479257D01*
X77492191Y-15480143D01*
X76507809Y-15480143D01*
X76499536Y-15476716D01*
X76497004Y-15472931D01*
X75086011Y-12075997D01*
X75086003Y-12067044D01*
X75092329Y-12060706D01*
X75093500Y-12060292D01*
X76996699Y-11500471D01*
X77003301Y-11500471D01*
X78906485Y-12060287D01*
G37*
%TD.AperFunction*%
%TD*%
%TA.AperFunction,Conductor*%
%TO.N,Board_5-Net-(J2-Pin_1)*%
G36*
X65500464Y-32524284D02*
G01*
X65502996Y-32528069D01*
X66913987Y-35925000D01*
X66913996Y-35933955D01*
X66907670Y-35940293D01*
X66906484Y-35940712D01*
X65003302Y-36500528D01*
X64996698Y-36500528D01*
X63093515Y-35940712D01*
X63086545Y-35935090D01*
X63085593Y-35926186D01*
X63086006Y-35925016D01*
X64497004Y-32528068D01*
X64503342Y-32521743D01*
X64507809Y-32520857D01*
X65492191Y-32520857D01*
X65500464Y-32524284D01*
G37*
%TD.AperFunction*%
%TD*%
%TA.AperFunction,Conductor*%
%TO.N,Board_5-Net-(J1-Pin_1)*%
G36*
X66906485Y-12060287D02*
G01*
X66913454Y-12065909D01*
X66914406Y-12074813D01*
X66913987Y-12075999D01*
X65502996Y-15472931D01*
X65496658Y-15479257D01*
X65492191Y-15480143D01*
X64507809Y-15480143D01*
X64499536Y-15476716D01*
X64497004Y-15472931D01*
X63086011Y-12075997D01*
X63086003Y-12067044D01*
X63092329Y-12060706D01*
X63093500Y-12060292D01*
X64996699Y-11500471D01*
X65003301Y-11500471D01*
X66906485Y-12060287D01*
G37*
%TD.AperFunction*%
%TD*%
%TA.AperFunction,Conductor*%
%TO.N,Board_4-Net-(J2-Pin_1)*%
G36*
X53500464Y-32524284D02*
G01*
X53502996Y-32528069D01*
X54913987Y-35925000D01*
X54913996Y-35933955D01*
X54907670Y-35940293D01*
X54906484Y-35940712D01*
X53003302Y-36500528D01*
X52996698Y-36500528D01*
X51093515Y-35940712D01*
X51086545Y-35935090D01*
X51085593Y-35926186D01*
X51086006Y-35925016D01*
X52497004Y-32528068D01*
X52503342Y-32521743D01*
X52507809Y-32520857D01*
X53492191Y-32520857D01*
X53500464Y-32524284D01*
G37*
%TD.AperFunction*%
%TD*%
%TA.AperFunction,Conductor*%
%TO.N,Board_4-Net-(J1-Pin_1)*%
G36*
X54906485Y-12060287D02*
G01*
X54913454Y-12065909D01*
X54914406Y-12074813D01*
X54913987Y-12075999D01*
X53502996Y-15472931D01*
X53496658Y-15479257D01*
X53492191Y-15480143D01*
X52507809Y-15480143D01*
X52499536Y-15476716D01*
X52497004Y-15472931D01*
X51086011Y-12075997D01*
X51086003Y-12067044D01*
X51092329Y-12060706D01*
X51093500Y-12060292D01*
X52996699Y-11500471D01*
X53003301Y-11500471D01*
X54906485Y-12060287D01*
G37*
%TD.AperFunction*%
%TD*%
%TA.AperFunction,Conductor*%
%TO.N,Board_3-Net-(J2-Pin_1)*%
G36*
X41500464Y-32524284D02*
G01*
X41502996Y-32528069D01*
X42913987Y-35925000D01*
X42913996Y-35933955D01*
X42907670Y-35940293D01*
X42906484Y-35940712D01*
X41003302Y-36500528D01*
X40996698Y-36500528D01*
X39093515Y-35940712D01*
X39086545Y-35935090D01*
X39085593Y-35926186D01*
X39086006Y-35925016D01*
X40497004Y-32528068D01*
X40503342Y-32521743D01*
X40507809Y-32520857D01*
X41492191Y-32520857D01*
X41500464Y-32524284D01*
G37*
%TD.AperFunction*%
%TD*%
%TA.AperFunction,Conductor*%
%TO.N,Board_3-Net-(J1-Pin_1)*%
G36*
X42906485Y-12060287D02*
G01*
X42913454Y-12065909D01*
X42914406Y-12074813D01*
X42913987Y-12075999D01*
X41502996Y-15472931D01*
X41496658Y-15479257D01*
X41492191Y-15480143D01*
X40507809Y-15480143D01*
X40499536Y-15476716D01*
X40497004Y-15472931D01*
X39086011Y-12075997D01*
X39086003Y-12067044D01*
X39092329Y-12060706D01*
X39093500Y-12060292D01*
X40996699Y-11500471D01*
X41003301Y-11500471D01*
X42906485Y-12060287D01*
G37*
%TD.AperFunction*%
%TD*%
%TA.AperFunction,Conductor*%
%TO.N,Board_2-Net-(J2-Pin_1)*%
G36*
X29500464Y-32524284D02*
G01*
X29502996Y-32528069D01*
X30913987Y-35925000D01*
X30913996Y-35933955D01*
X30907670Y-35940293D01*
X30906484Y-35940712D01*
X29003302Y-36500528D01*
X28996698Y-36500528D01*
X27093515Y-35940712D01*
X27086545Y-35935090D01*
X27085593Y-35926186D01*
X27086006Y-35925016D01*
X28497004Y-32528068D01*
X28503342Y-32521743D01*
X28507809Y-32520857D01*
X29492191Y-32520857D01*
X29500464Y-32524284D01*
G37*
%TD.AperFunction*%
%TD*%
%TA.AperFunction,Conductor*%
%TO.N,Board_2-Net-(J1-Pin_1)*%
G36*
X30906485Y-12060287D02*
G01*
X30913454Y-12065909D01*
X30914406Y-12074813D01*
X30913987Y-12075999D01*
X29502996Y-15472931D01*
X29496658Y-15479257D01*
X29492191Y-15480143D01*
X28507809Y-15480143D01*
X28499536Y-15476716D01*
X28497004Y-15472931D01*
X27086011Y-12075997D01*
X27086003Y-12067044D01*
X27092329Y-12060706D01*
X27093500Y-12060292D01*
X28996699Y-11500471D01*
X29003301Y-11500471D01*
X30906485Y-12060287D01*
G37*
%TD.AperFunction*%
%TD*%
%TA.AperFunction,Conductor*%
%TO.N,Board_1-Net-(J2-Pin_1)*%
G36*
X17500464Y-32524284D02*
G01*
X17502996Y-32528069D01*
X18913987Y-35925000D01*
X18913996Y-35933955D01*
X18907670Y-35940293D01*
X18906484Y-35940712D01*
X17003302Y-36500528D01*
X16996698Y-36500528D01*
X15093515Y-35940712D01*
X15086545Y-35935090D01*
X15085593Y-35926186D01*
X15086006Y-35925016D01*
X16497004Y-32528068D01*
X16503342Y-32521743D01*
X16507809Y-32520857D01*
X17492191Y-32520857D01*
X17500464Y-32524284D01*
G37*
%TD.AperFunction*%
%TD*%
%TA.AperFunction,Conductor*%
%TO.N,Board_1-Net-(J1-Pin_1)*%
G36*
X18906485Y-12060287D02*
G01*
X18913454Y-12065909D01*
X18914406Y-12074813D01*
X18913987Y-12075999D01*
X17502996Y-15472931D01*
X17496658Y-15479257D01*
X17492191Y-15480143D01*
X16507809Y-15480143D01*
X16499536Y-15476716D01*
X16497004Y-15472931D01*
X15086011Y-12075997D01*
X15086003Y-12067044D01*
X15092329Y-12060706D01*
X15093500Y-12060292D01*
X16996699Y-11500471D01*
X17003301Y-11500471D01*
X18906485Y-12060287D01*
G37*
%TD.AperFunction*%
%TD*%
%TA.AperFunction,Conductor*%
%TO.N,Board_0-Net-(J2-Pin_1)*%
G36*
X5500464Y-32524284D02*
G01*
X5502996Y-32528069D01*
X6913987Y-35925000D01*
X6913996Y-35933955D01*
X6907670Y-35940293D01*
X6906484Y-35940712D01*
X5003302Y-36500528D01*
X4996698Y-36500528D01*
X3093515Y-35940712D01*
X3086545Y-35935090D01*
X3085593Y-35926186D01*
X3086006Y-35925016D01*
X4497004Y-32528068D01*
X4503342Y-32521743D01*
X4507809Y-32520857D01*
X5492191Y-32520857D01*
X5500464Y-32524284D01*
G37*
%TD.AperFunction*%
%TD*%
%TA.AperFunction,Conductor*%
%TO.N,Board_0-Net-(J1-Pin_1)*%
G36*
X6906485Y-12060287D02*
G01*
X6913454Y-12065909D01*
X6914406Y-12074813D01*
X6913987Y-12075999D01*
X5502996Y-15472931D01*
X5496658Y-15479257D01*
X5492191Y-15480143D01*
X4507809Y-15480143D01*
X4499536Y-15476716D01*
X4497004Y-15472931D01*
X3086011Y-12075997D01*
X3086003Y-12067044D01*
X3092329Y-12060706D01*
X3093500Y-12060292D01*
X4996699Y-11500471D01*
X5003301Y-11500471D01*
X6906485Y-12060287D01*
G37*
%TD.AperFunction*%
%TD*%
M02*
