%TF.GenerationSoftware,KiCad,Pcbnew,8.0.2*%
%TF.CreationDate,2024-06-26T18:14:25+07:00*%
%TF.ProjectId,capacitor_100nF_100V_Panel,63617061-6369-4746-9f72-5f3130306e46,rev?*%
%TF.SameCoordinates,Original*%
%TF.FileFunction,Legend,Top*%
%TF.FilePolarity,Positive*%
%FSLAX46Y46*%
G04 Gerber Fmt 4.6, Leading zero omitted, Abs format (unit mm)*
G04 Created by KiCad (PCBNEW 8.0.2) date 2024-06-26 18:14:25*
%MOMM*%
%LPD*%
G01*
G04 APERTURE LIST*
G04 Aperture macros list*
%AMRoundRect*
0 Rectangle with rounded corners*
0 $1 Rounding radius*
0 $2 $3 $4 $5 $6 $7 $8 $9 X,Y pos of 4 corners*
0 Add a 4 corners polygon primitive as box body*
4,1,4,$2,$3,$4,$5,$6,$7,$8,$9,$2,$3,0*
0 Add four circle primitives for the rounded corners*
1,1,$1+$1,$2,$3*
1,1,$1+$1,$4,$5*
1,1,$1+$1,$6,$7*
1,1,$1+$1,$8,$9*
0 Add four rect primitives between the rounded corners*
20,1,$1+$1,$2,$3,$4,$5,0*
20,1,$1+$1,$4,$5,$6,$7,0*
20,1,$1+$1,$6,$7,$8,$9,0*
20,1,$1+$1,$8,$9,$2,$3,0*%
G04 Aperture macros list end*
%ADD10C,0.250000*%
%ADD11C,0.750000*%
%ADD12C,0.700000*%
%ADD13C,0.120000*%
%ADD14C,4.000000*%
%ADD15RoundRect,0.250000X-0.650000X0.325000X-0.650000X-0.325000X0.650000X-0.325000X0.650000X0.325000X0*%
G04 APERTURE END LIST*
D10*
X44849678Y-25703883D02*
X44849678Y-26561026D01*
X44849678Y-26132455D02*
X43349678Y-26132455D01*
X43349678Y-26132455D02*
X43563964Y-26275312D01*
X43563964Y-26275312D02*
X43706821Y-26418169D01*
X43706821Y-26418169D02*
X43778250Y-26561026D01*
X43349678Y-24775312D02*
X43349678Y-24632455D01*
X43349678Y-24632455D02*
X43421107Y-24489598D01*
X43421107Y-24489598D02*
X43492535Y-24418170D01*
X43492535Y-24418170D02*
X43635392Y-24346741D01*
X43635392Y-24346741D02*
X43921107Y-24275312D01*
X43921107Y-24275312D02*
X44278250Y-24275312D01*
X44278250Y-24275312D02*
X44563964Y-24346741D01*
X44563964Y-24346741D02*
X44706821Y-24418170D01*
X44706821Y-24418170D02*
X44778250Y-24489598D01*
X44778250Y-24489598D02*
X44849678Y-24632455D01*
X44849678Y-24632455D02*
X44849678Y-24775312D01*
X44849678Y-24775312D02*
X44778250Y-24918170D01*
X44778250Y-24918170D02*
X44706821Y-24989598D01*
X44706821Y-24989598D02*
X44563964Y-25061027D01*
X44563964Y-25061027D02*
X44278250Y-25132455D01*
X44278250Y-25132455D02*
X43921107Y-25132455D01*
X43921107Y-25132455D02*
X43635392Y-25061027D01*
X43635392Y-25061027D02*
X43492535Y-24989598D01*
X43492535Y-24989598D02*
X43421107Y-24918170D01*
X43421107Y-24918170D02*
X43349678Y-24775312D01*
X43349678Y-23346741D02*
X43349678Y-23203884D01*
X43349678Y-23203884D02*
X43421107Y-23061027D01*
X43421107Y-23061027D02*
X43492535Y-22989599D01*
X43492535Y-22989599D02*
X43635392Y-22918170D01*
X43635392Y-22918170D02*
X43921107Y-22846741D01*
X43921107Y-22846741D02*
X44278250Y-22846741D01*
X44278250Y-22846741D02*
X44563964Y-22918170D01*
X44563964Y-22918170D02*
X44706821Y-22989599D01*
X44706821Y-22989599D02*
X44778250Y-23061027D01*
X44778250Y-23061027D02*
X44849678Y-23203884D01*
X44849678Y-23203884D02*
X44849678Y-23346741D01*
X44849678Y-23346741D02*
X44778250Y-23489599D01*
X44778250Y-23489599D02*
X44706821Y-23561027D01*
X44706821Y-23561027D02*
X44563964Y-23632456D01*
X44563964Y-23632456D02*
X44278250Y-23703884D01*
X44278250Y-23703884D02*
X43921107Y-23703884D01*
X43921107Y-23703884D02*
X43635392Y-23632456D01*
X43635392Y-23632456D02*
X43492535Y-23561027D01*
X43492535Y-23561027D02*
X43421107Y-23489599D01*
X43421107Y-23489599D02*
X43349678Y-23346741D01*
X43349678Y-22418170D02*
X44849678Y-21918170D01*
X44849678Y-21918170D02*
X43349678Y-21418170D01*
X61324678Y-60525312D02*
X61324678Y-60382455D01*
X61324678Y-60382455D02*
X61396107Y-60239598D01*
X61396107Y-60239598D02*
X61467535Y-60168170D01*
X61467535Y-60168170D02*
X61610392Y-60096741D01*
X61610392Y-60096741D02*
X61896107Y-60025312D01*
X61896107Y-60025312D02*
X62253250Y-60025312D01*
X62253250Y-60025312D02*
X62538964Y-60096741D01*
X62538964Y-60096741D02*
X62681821Y-60168170D01*
X62681821Y-60168170D02*
X62753250Y-60239598D01*
X62753250Y-60239598D02*
X62824678Y-60382455D01*
X62824678Y-60382455D02*
X62824678Y-60525312D01*
X62824678Y-60525312D02*
X62753250Y-60668170D01*
X62753250Y-60668170D02*
X62681821Y-60739598D01*
X62681821Y-60739598D02*
X62538964Y-60811027D01*
X62538964Y-60811027D02*
X62253250Y-60882455D01*
X62253250Y-60882455D02*
X61896107Y-60882455D01*
X61896107Y-60882455D02*
X61610392Y-60811027D01*
X61610392Y-60811027D02*
X61467535Y-60739598D01*
X61467535Y-60739598D02*
X61396107Y-60668170D01*
X61396107Y-60668170D02*
X61324678Y-60525312D01*
X62681821Y-59382456D02*
X62753250Y-59311027D01*
X62753250Y-59311027D02*
X62824678Y-59382456D01*
X62824678Y-59382456D02*
X62753250Y-59453884D01*
X62753250Y-59453884D02*
X62681821Y-59382456D01*
X62681821Y-59382456D02*
X62824678Y-59382456D01*
X62824678Y-57882455D02*
X62824678Y-58739598D01*
X62824678Y-58311027D02*
X61324678Y-58311027D01*
X61324678Y-58311027D02*
X61538964Y-58453884D01*
X61538964Y-58453884D02*
X61681821Y-58596741D01*
X61681821Y-58596741D02*
X61753250Y-58739598D01*
X61824678Y-56596742D02*
X62824678Y-56596742D01*
X61824678Y-57239599D02*
X62610392Y-57239599D01*
X62610392Y-57239599D02*
X62753250Y-57168170D01*
X62753250Y-57168170D02*
X62824678Y-57025313D01*
X62824678Y-57025313D02*
X62824678Y-56811027D01*
X62824678Y-56811027D02*
X62753250Y-56668170D01*
X62753250Y-56668170D02*
X62681821Y-56596742D01*
X62038964Y-55382456D02*
X62038964Y-55882456D01*
X62824678Y-55882456D02*
X61324678Y-55882456D01*
X61324678Y-55882456D02*
X61324678Y-55168170D01*
X85324678Y-60525312D02*
X85324678Y-60382455D01*
X85324678Y-60382455D02*
X85396107Y-60239598D01*
X85396107Y-60239598D02*
X85467535Y-60168170D01*
X85467535Y-60168170D02*
X85610392Y-60096741D01*
X85610392Y-60096741D02*
X85896107Y-60025312D01*
X85896107Y-60025312D02*
X86253250Y-60025312D01*
X86253250Y-60025312D02*
X86538964Y-60096741D01*
X86538964Y-60096741D02*
X86681821Y-60168170D01*
X86681821Y-60168170D02*
X86753250Y-60239598D01*
X86753250Y-60239598D02*
X86824678Y-60382455D01*
X86824678Y-60382455D02*
X86824678Y-60525312D01*
X86824678Y-60525312D02*
X86753250Y-60668170D01*
X86753250Y-60668170D02*
X86681821Y-60739598D01*
X86681821Y-60739598D02*
X86538964Y-60811027D01*
X86538964Y-60811027D02*
X86253250Y-60882455D01*
X86253250Y-60882455D02*
X85896107Y-60882455D01*
X85896107Y-60882455D02*
X85610392Y-60811027D01*
X85610392Y-60811027D02*
X85467535Y-60739598D01*
X85467535Y-60739598D02*
X85396107Y-60668170D01*
X85396107Y-60668170D02*
X85324678Y-60525312D01*
X86681821Y-59382456D02*
X86753250Y-59311027D01*
X86753250Y-59311027D02*
X86824678Y-59382456D01*
X86824678Y-59382456D02*
X86753250Y-59453884D01*
X86753250Y-59453884D02*
X86681821Y-59382456D01*
X86681821Y-59382456D02*
X86824678Y-59382456D01*
X86824678Y-57882455D02*
X86824678Y-58739598D01*
X86824678Y-58311027D02*
X85324678Y-58311027D01*
X85324678Y-58311027D02*
X85538964Y-58453884D01*
X85538964Y-58453884D02*
X85681821Y-58596741D01*
X85681821Y-58596741D02*
X85753250Y-58739598D01*
X85824678Y-56596742D02*
X86824678Y-56596742D01*
X85824678Y-57239599D02*
X86610392Y-57239599D01*
X86610392Y-57239599D02*
X86753250Y-57168170D01*
X86753250Y-57168170D02*
X86824678Y-57025313D01*
X86824678Y-57025313D02*
X86824678Y-56811027D01*
X86824678Y-56811027D02*
X86753250Y-56668170D01*
X86753250Y-56668170D02*
X86681821Y-56596742D01*
X86038964Y-55382456D02*
X86038964Y-55882456D01*
X86824678Y-55882456D02*
X85324678Y-55882456D01*
X85324678Y-55882456D02*
X85324678Y-55168170D01*
X80849678Y-59703883D02*
X80849678Y-60561026D01*
X80849678Y-60132455D02*
X79349678Y-60132455D01*
X79349678Y-60132455D02*
X79563964Y-60275312D01*
X79563964Y-60275312D02*
X79706821Y-60418169D01*
X79706821Y-60418169D02*
X79778250Y-60561026D01*
X79349678Y-58775312D02*
X79349678Y-58632455D01*
X79349678Y-58632455D02*
X79421107Y-58489598D01*
X79421107Y-58489598D02*
X79492535Y-58418170D01*
X79492535Y-58418170D02*
X79635392Y-58346741D01*
X79635392Y-58346741D02*
X79921107Y-58275312D01*
X79921107Y-58275312D02*
X80278250Y-58275312D01*
X80278250Y-58275312D02*
X80563964Y-58346741D01*
X80563964Y-58346741D02*
X80706821Y-58418170D01*
X80706821Y-58418170D02*
X80778250Y-58489598D01*
X80778250Y-58489598D02*
X80849678Y-58632455D01*
X80849678Y-58632455D02*
X80849678Y-58775312D01*
X80849678Y-58775312D02*
X80778250Y-58918170D01*
X80778250Y-58918170D02*
X80706821Y-58989598D01*
X80706821Y-58989598D02*
X80563964Y-59061027D01*
X80563964Y-59061027D02*
X80278250Y-59132455D01*
X80278250Y-59132455D02*
X79921107Y-59132455D01*
X79921107Y-59132455D02*
X79635392Y-59061027D01*
X79635392Y-59061027D02*
X79492535Y-58989598D01*
X79492535Y-58989598D02*
X79421107Y-58918170D01*
X79421107Y-58918170D02*
X79349678Y-58775312D01*
X79349678Y-57346741D02*
X79349678Y-57203884D01*
X79349678Y-57203884D02*
X79421107Y-57061027D01*
X79421107Y-57061027D02*
X79492535Y-56989599D01*
X79492535Y-56989599D02*
X79635392Y-56918170D01*
X79635392Y-56918170D02*
X79921107Y-56846741D01*
X79921107Y-56846741D02*
X80278250Y-56846741D01*
X80278250Y-56846741D02*
X80563964Y-56918170D01*
X80563964Y-56918170D02*
X80706821Y-56989599D01*
X80706821Y-56989599D02*
X80778250Y-57061027D01*
X80778250Y-57061027D02*
X80849678Y-57203884D01*
X80849678Y-57203884D02*
X80849678Y-57346741D01*
X80849678Y-57346741D02*
X80778250Y-57489599D01*
X80778250Y-57489599D02*
X80706821Y-57561027D01*
X80706821Y-57561027D02*
X80563964Y-57632456D01*
X80563964Y-57632456D02*
X80278250Y-57703884D01*
X80278250Y-57703884D02*
X79921107Y-57703884D01*
X79921107Y-57703884D02*
X79635392Y-57632456D01*
X79635392Y-57632456D02*
X79492535Y-57561027D01*
X79492535Y-57561027D02*
X79421107Y-57489599D01*
X79421107Y-57489599D02*
X79349678Y-57346741D01*
X79349678Y-56418170D02*
X80849678Y-55918170D01*
X80849678Y-55918170D02*
X79349678Y-55418170D01*
X85324678Y-26525312D02*
X85324678Y-26382455D01*
X85324678Y-26382455D02*
X85396107Y-26239598D01*
X85396107Y-26239598D02*
X85467535Y-26168170D01*
X85467535Y-26168170D02*
X85610392Y-26096741D01*
X85610392Y-26096741D02*
X85896107Y-26025312D01*
X85896107Y-26025312D02*
X86253250Y-26025312D01*
X86253250Y-26025312D02*
X86538964Y-26096741D01*
X86538964Y-26096741D02*
X86681821Y-26168170D01*
X86681821Y-26168170D02*
X86753250Y-26239598D01*
X86753250Y-26239598D02*
X86824678Y-26382455D01*
X86824678Y-26382455D02*
X86824678Y-26525312D01*
X86824678Y-26525312D02*
X86753250Y-26668170D01*
X86753250Y-26668170D02*
X86681821Y-26739598D01*
X86681821Y-26739598D02*
X86538964Y-26811027D01*
X86538964Y-26811027D02*
X86253250Y-26882455D01*
X86253250Y-26882455D02*
X85896107Y-26882455D01*
X85896107Y-26882455D02*
X85610392Y-26811027D01*
X85610392Y-26811027D02*
X85467535Y-26739598D01*
X85467535Y-26739598D02*
X85396107Y-26668170D01*
X85396107Y-26668170D02*
X85324678Y-26525312D01*
X86681821Y-25382456D02*
X86753250Y-25311027D01*
X86753250Y-25311027D02*
X86824678Y-25382456D01*
X86824678Y-25382456D02*
X86753250Y-25453884D01*
X86753250Y-25453884D02*
X86681821Y-25382456D01*
X86681821Y-25382456D02*
X86824678Y-25382456D01*
X86824678Y-23882455D02*
X86824678Y-24739598D01*
X86824678Y-24311027D02*
X85324678Y-24311027D01*
X85324678Y-24311027D02*
X85538964Y-24453884D01*
X85538964Y-24453884D02*
X85681821Y-24596741D01*
X85681821Y-24596741D02*
X85753250Y-24739598D01*
X85824678Y-22596742D02*
X86824678Y-22596742D01*
X85824678Y-23239599D02*
X86610392Y-23239599D01*
X86610392Y-23239599D02*
X86753250Y-23168170D01*
X86753250Y-23168170D02*
X86824678Y-23025313D01*
X86824678Y-23025313D02*
X86824678Y-22811027D01*
X86824678Y-22811027D02*
X86753250Y-22668170D01*
X86753250Y-22668170D02*
X86681821Y-22596742D01*
X86038964Y-21382456D02*
X86038964Y-21882456D01*
X86824678Y-21882456D02*
X85324678Y-21882456D01*
X85324678Y-21882456D02*
X85324678Y-21168170D01*
X92849678Y-59703883D02*
X92849678Y-60561026D01*
X92849678Y-60132455D02*
X91349678Y-60132455D01*
X91349678Y-60132455D02*
X91563964Y-60275312D01*
X91563964Y-60275312D02*
X91706821Y-60418169D01*
X91706821Y-60418169D02*
X91778250Y-60561026D01*
X91349678Y-58775312D02*
X91349678Y-58632455D01*
X91349678Y-58632455D02*
X91421107Y-58489598D01*
X91421107Y-58489598D02*
X91492535Y-58418170D01*
X91492535Y-58418170D02*
X91635392Y-58346741D01*
X91635392Y-58346741D02*
X91921107Y-58275312D01*
X91921107Y-58275312D02*
X92278250Y-58275312D01*
X92278250Y-58275312D02*
X92563964Y-58346741D01*
X92563964Y-58346741D02*
X92706821Y-58418170D01*
X92706821Y-58418170D02*
X92778250Y-58489598D01*
X92778250Y-58489598D02*
X92849678Y-58632455D01*
X92849678Y-58632455D02*
X92849678Y-58775312D01*
X92849678Y-58775312D02*
X92778250Y-58918170D01*
X92778250Y-58918170D02*
X92706821Y-58989598D01*
X92706821Y-58989598D02*
X92563964Y-59061027D01*
X92563964Y-59061027D02*
X92278250Y-59132455D01*
X92278250Y-59132455D02*
X91921107Y-59132455D01*
X91921107Y-59132455D02*
X91635392Y-59061027D01*
X91635392Y-59061027D02*
X91492535Y-58989598D01*
X91492535Y-58989598D02*
X91421107Y-58918170D01*
X91421107Y-58918170D02*
X91349678Y-58775312D01*
X91349678Y-57346741D02*
X91349678Y-57203884D01*
X91349678Y-57203884D02*
X91421107Y-57061027D01*
X91421107Y-57061027D02*
X91492535Y-56989599D01*
X91492535Y-56989599D02*
X91635392Y-56918170D01*
X91635392Y-56918170D02*
X91921107Y-56846741D01*
X91921107Y-56846741D02*
X92278250Y-56846741D01*
X92278250Y-56846741D02*
X92563964Y-56918170D01*
X92563964Y-56918170D02*
X92706821Y-56989599D01*
X92706821Y-56989599D02*
X92778250Y-57061027D01*
X92778250Y-57061027D02*
X92849678Y-57203884D01*
X92849678Y-57203884D02*
X92849678Y-57346741D01*
X92849678Y-57346741D02*
X92778250Y-57489599D01*
X92778250Y-57489599D02*
X92706821Y-57561027D01*
X92706821Y-57561027D02*
X92563964Y-57632456D01*
X92563964Y-57632456D02*
X92278250Y-57703884D01*
X92278250Y-57703884D02*
X91921107Y-57703884D01*
X91921107Y-57703884D02*
X91635392Y-57632456D01*
X91635392Y-57632456D02*
X91492535Y-57561027D01*
X91492535Y-57561027D02*
X91421107Y-57489599D01*
X91421107Y-57489599D02*
X91349678Y-57346741D01*
X91349678Y-56418170D02*
X92849678Y-55918170D01*
X92849678Y-55918170D02*
X91349678Y-55418170D01*
X1324678Y-60525312D02*
X1324678Y-60382455D01*
X1324678Y-60382455D02*
X1396107Y-60239598D01*
X1396107Y-60239598D02*
X1467535Y-60168170D01*
X1467535Y-60168170D02*
X1610392Y-60096741D01*
X1610392Y-60096741D02*
X1896107Y-60025312D01*
X1896107Y-60025312D02*
X2253250Y-60025312D01*
X2253250Y-60025312D02*
X2538964Y-60096741D01*
X2538964Y-60096741D02*
X2681821Y-60168170D01*
X2681821Y-60168170D02*
X2753250Y-60239598D01*
X2753250Y-60239598D02*
X2824678Y-60382455D01*
X2824678Y-60382455D02*
X2824678Y-60525312D01*
X2824678Y-60525312D02*
X2753250Y-60668170D01*
X2753250Y-60668170D02*
X2681821Y-60739598D01*
X2681821Y-60739598D02*
X2538964Y-60811027D01*
X2538964Y-60811027D02*
X2253250Y-60882455D01*
X2253250Y-60882455D02*
X1896107Y-60882455D01*
X1896107Y-60882455D02*
X1610392Y-60811027D01*
X1610392Y-60811027D02*
X1467535Y-60739598D01*
X1467535Y-60739598D02*
X1396107Y-60668170D01*
X1396107Y-60668170D02*
X1324678Y-60525312D01*
X2681821Y-59382456D02*
X2753250Y-59311027D01*
X2753250Y-59311027D02*
X2824678Y-59382456D01*
X2824678Y-59382456D02*
X2753250Y-59453884D01*
X2753250Y-59453884D02*
X2681821Y-59382456D01*
X2681821Y-59382456D02*
X2824678Y-59382456D01*
X2824678Y-57882455D02*
X2824678Y-58739598D01*
X2824678Y-58311027D02*
X1324678Y-58311027D01*
X1324678Y-58311027D02*
X1538964Y-58453884D01*
X1538964Y-58453884D02*
X1681821Y-58596741D01*
X1681821Y-58596741D02*
X1753250Y-58739598D01*
X1824678Y-56596742D02*
X2824678Y-56596742D01*
X1824678Y-57239599D02*
X2610392Y-57239599D01*
X2610392Y-57239599D02*
X2753250Y-57168170D01*
X2753250Y-57168170D02*
X2824678Y-57025313D01*
X2824678Y-57025313D02*
X2824678Y-56811027D01*
X2824678Y-56811027D02*
X2753250Y-56668170D01*
X2753250Y-56668170D02*
X2681821Y-56596742D01*
X2038964Y-55382456D02*
X2038964Y-55882456D01*
X2824678Y-55882456D02*
X1324678Y-55882456D01*
X1324678Y-55882456D02*
X1324678Y-55168170D01*
X13324678Y-26525312D02*
X13324678Y-26382455D01*
X13324678Y-26382455D02*
X13396107Y-26239598D01*
X13396107Y-26239598D02*
X13467535Y-26168170D01*
X13467535Y-26168170D02*
X13610392Y-26096741D01*
X13610392Y-26096741D02*
X13896107Y-26025312D01*
X13896107Y-26025312D02*
X14253250Y-26025312D01*
X14253250Y-26025312D02*
X14538964Y-26096741D01*
X14538964Y-26096741D02*
X14681821Y-26168170D01*
X14681821Y-26168170D02*
X14753250Y-26239598D01*
X14753250Y-26239598D02*
X14824678Y-26382455D01*
X14824678Y-26382455D02*
X14824678Y-26525312D01*
X14824678Y-26525312D02*
X14753250Y-26668170D01*
X14753250Y-26668170D02*
X14681821Y-26739598D01*
X14681821Y-26739598D02*
X14538964Y-26811027D01*
X14538964Y-26811027D02*
X14253250Y-26882455D01*
X14253250Y-26882455D02*
X13896107Y-26882455D01*
X13896107Y-26882455D02*
X13610392Y-26811027D01*
X13610392Y-26811027D02*
X13467535Y-26739598D01*
X13467535Y-26739598D02*
X13396107Y-26668170D01*
X13396107Y-26668170D02*
X13324678Y-26525312D01*
X14681821Y-25382456D02*
X14753250Y-25311027D01*
X14753250Y-25311027D02*
X14824678Y-25382456D01*
X14824678Y-25382456D02*
X14753250Y-25453884D01*
X14753250Y-25453884D02*
X14681821Y-25382456D01*
X14681821Y-25382456D02*
X14824678Y-25382456D01*
X14824678Y-23882455D02*
X14824678Y-24739598D01*
X14824678Y-24311027D02*
X13324678Y-24311027D01*
X13324678Y-24311027D02*
X13538964Y-24453884D01*
X13538964Y-24453884D02*
X13681821Y-24596741D01*
X13681821Y-24596741D02*
X13753250Y-24739598D01*
X13824678Y-22596742D02*
X14824678Y-22596742D01*
X13824678Y-23239599D02*
X14610392Y-23239599D01*
X14610392Y-23239599D02*
X14753250Y-23168170D01*
X14753250Y-23168170D02*
X14824678Y-23025313D01*
X14824678Y-23025313D02*
X14824678Y-22811027D01*
X14824678Y-22811027D02*
X14753250Y-22668170D01*
X14753250Y-22668170D02*
X14681821Y-22596742D01*
X14038964Y-21382456D02*
X14038964Y-21882456D01*
X14824678Y-21882456D02*
X13324678Y-21882456D01*
X13324678Y-21882456D02*
X13324678Y-21168170D01*
X56849678Y-25703883D02*
X56849678Y-26561026D01*
X56849678Y-26132455D02*
X55349678Y-26132455D01*
X55349678Y-26132455D02*
X55563964Y-26275312D01*
X55563964Y-26275312D02*
X55706821Y-26418169D01*
X55706821Y-26418169D02*
X55778250Y-26561026D01*
X55349678Y-24775312D02*
X55349678Y-24632455D01*
X55349678Y-24632455D02*
X55421107Y-24489598D01*
X55421107Y-24489598D02*
X55492535Y-24418170D01*
X55492535Y-24418170D02*
X55635392Y-24346741D01*
X55635392Y-24346741D02*
X55921107Y-24275312D01*
X55921107Y-24275312D02*
X56278250Y-24275312D01*
X56278250Y-24275312D02*
X56563964Y-24346741D01*
X56563964Y-24346741D02*
X56706821Y-24418170D01*
X56706821Y-24418170D02*
X56778250Y-24489598D01*
X56778250Y-24489598D02*
X56849678Y-24632455D01*
X56849678Y-24632455D02*
X56849678Y-24775312D01*
X56849678Y-24775312D02*
X56778250Y-24918170D01*
X56778250Y-24918170D02*
X56706821Y-24989598D01*
X56706821Y-24989598D02*
X56563964Y-25061027D01*
X56563964Y-25061027D02*
X56278250Y-25132455D01*
X56278250Y-25132455D02*
X55921107Y-25132455D01*
X55921107Y-25132455D02*
X55635392Y-25061027D01*
X55635392Y-25061027D02*
X55492535Y-24989598D01*
X55492535Y-24989598D02*
X55421107Y-24918170D01*
X55421107Y-24918170D02*
X55349678Y-24775312D01*
X55349678Y-23346741D02*
X55349678Y-23203884D01*
X55349678Y-23203884D02*
X55421107Y-23061027D01*
X55421107Y-23061027D02*
X55492535Y-22989599D01*
X55492535Y-22989599D02*
X55635392Y-22918170D01*
X55635392Y-22918170D02*
X55921107Y-22846741D01*
X55921107Y-22846741D02*
X56278250Y-22846741D01*
X56278250Y-22846741D02*
X56563964Y-22918170D01*
X56563964Y-22918170D02*
X56706821Y-22989599D01*
X56706821Y-22989599D02*
X56778250Y-23061027D01*
X56778250Y-23061027D02*
X56849678Y-23203884D01*
X56849678Y-23203884D02*
X56849678Y-23346741D01*
X56849678Y-23346741D02*
X56778250Y-23489599D01*
X56778250Y-23489599D02*
X56706821Y-23561027D01*
X56706821Y-23561027D02*
X56563964Y-23632456D01*
X56563964Y-23632456D02*
X56278250Y-23703884D01*
X56278250Y-23703884D02*
X55921107Y-23703884D01*
X55921107Y-23703884D02*
X55635392Y-23632456D01*
X55635392Y-23632456D02*
X55492535Y-23561027D01*
X55492535Y-23561027D02*
X55421107Y-23489599D01*
X55421107Y-23489599D02*
X55349678Y-23346741D01*
X55349678Y-22418170D02*
X56849678Y-21918170D01*
X56849678Y-21918170D02*
X55349678Y-21418170D01*
X92849678Y-25703883D02*
X92849678Y-26561026D01*
X92849678Y-26132455D02*
X91349678Y-26132455D01*
X91349678Y-26132455D02*
X91563964Y-26275312D01*
X91563964Y-26275312D02*
X91706821Y-26418169D01*
X91706821Y-26418169D02*
X91778250Y-26561026D01*
X91349678Y-24775312D02*
X91349678Y-24632455D01*
X91349678Y-24632455D02*
X91421107Y-24489598D01*
X91421107Y-24489598D02*
X91492535Y-24418170D01*
X91492535Y-24418170D02*
X91635392Y-24346741D01*
X91635392Y-24346741D02*
X91921107Y-24275312D01*
X91921107Y-24275312D02*
X92278250Y-24275312D01*
X92278250Y-24275312D02*
X92563964Y-24346741D01*
X92563964Y-24346741D02*
X92706821Y-24418170D01*
X92706821Y-24418170D02*
X92778250Y-24489598D01*
X92778250Y-24489598D02*
X92849678Y-24632455D01*
X92849678Y-24632455D02*
X92849678Y-24775312D01*
X92849678Y-24775312D02*
X92778250Y-24918170D01*
X92778250Y-24918170D02*
X92706821Y-24989598D01*
X92706821Y-24989598D02*
X92563964Y-25061027D01*
X92563964Y-25061027D02*
X92278250Y-25132455D01*
X92278250Y-25132455D02*
X91921107Y-25132455D01*
X91921107Y-25132455D02*
X91635392Y-25061027D01*
X91635392Y-25061027D02*
X91492535Y-24989598D01*
X91492535Y-24989598D02*
X91421107Y-24918170D01*
X91421107Y-24918170D02*
X91349678Y-24775312D01*
X91349678Y-23346741D02*
X91349678Y-23203884D01*
X91349678Y-23203884D02*
X91421107Y-23061027D01*
X91421107Y-23061027D02*
X91492535Y-22989599D01*
X91492535Y-22989599D02*
X91635392Y-22918170D01*
X91635392Y-22918170D02*
X91921107Y-22846741D01*
X91921107Y-22846741D02*
X92278250Y-22846741D01*
X92278250Y-22846741D02*
X92563964Y-22918170D01*
X92563964Y-22918170D02*
X92706821Y-22989599D01*
X92706821Y-22989599D02*
X92778250Y-23061027D01*
X92778250Y-23061027D02*
X92849678Y-23203884D01*
X92849678Y-23203884D02*
X92849678Y-23346741D01*
X92849678Y-23346741D02*
X92778250Y-23489599D01*
X92778250Y-23489599D02*
X92706821Y-23561027D01*
X92706821Y-23561027D02*
X92563964Y-23632456D01*
X92563964Y-23632456D02*
X92278250Y-23703884D01*
X92278250Y-23703884D02*
X91921107Y-23703884D01*
X91921107Y-23703884D02*
X91635392Y-23632456D01*
X91635392Y-23632456D02*
X91492535Y-23561027D01*
X91492535Y-23561027D02*
X91421107Y-23489599D01*
X91421107Y-23489599D02*
X91349678Y-23346741D01*
X91349678Y-22418170D02*
X92849678Y-21918170D01*
X92849678Y-21918170D02*
X91349678Y-21418170D01*
X20849678Y-59703883D02*
X20849678Y-60561026D01*
X20849678Y-60132455D02*
X19349678Y-60132455D01*
X19349678Y-60132455D02*
X19563964Y-60275312D01*
X19563964Y-60275312D02*
X19706821Y-60418169D01*
X19706821Y-60418169D02*
X19778250Y-60561026D01*
X19349678Y-58775312D02*
X19349678Y-58632455D01*
X19349678Y-58632455D02*
X19421107Y-58489598D01*
X19421107Y-58489598D02*
X19492535Y-58418170D01*
X19492535Y-58418170D02*
X19635392Y-58346741D01*
X19635392Y-58346741D02*
X19921107Y-58275312D01*
X19921107Y-58275312D02*
X20278250Y-58275312D01*
X20278250Y-58275312D02*
X20563964Y-58346741D01*
X20563964Y-58346741D02*
X20706821Y-58418170D01*
X20706821Y-58418170D02*
X20778250Y-58489598D01*
X20778250Y-58489598D02*
X20849678Y-58632455D01*
X20849678Y-58632455D02*
X20849678Y-58775312D01*
X20849678Y-58775312D02*
X20778250Y-58918170D01*
X20778250Y-58918170D02*
X20706821Y-58989598D01*
X20706821Y-58989598D02*
X20563964Y-59061027D01*
X20563964Y-59061027D02*
X20278250Y-59132455D01*
X20278250Y-59132455D02*
X19921107Y-59132455D01*
X19921107Y-59132455D02*
X19635392Y-59061027D01*
X19635392Y-59061027D02*
X19492535Y-58989598D01*
X19492535Y-58989598D02*
X19421107Y-58918170D01*
X19421107Y-58918170D02*
X19349678Y-58775312D01*
X19349678Y-57346741D02*
X19349678Y-57203884D01*
X19349678Y-57203884D02*
X19421107Y-57061027D01*
X19421107Y-57061027D02*
X19492535Y-56989599D01*
X19492535Y-56989599D02*
X19635392Y-56918170D01*
X19635392Y-56918170D02*
X19921107Y-56846741D01*
X19921107Y-56846741D02*
X20278250Y-56846741D01*
X20278250Y-56846741D02*
X20563964Y-56918170D01*
X20563964Y-56918170D02*
X20706821Y-56989599D01*
X20706821Y-56989599D02*
X20778250Y-57061027D01*
X20778250Y-57061027D02*
X20849678Y-57203884D01*
X20849678Y-57203884D02*
X20849678Y-57346741D01*
X20849678Y-57346741D02*
X20778250Y-57489599D01*
X20778250Y-57489599D02*
X20706821Y-57561027D01*
X20706821Y-57561027D02*
X20563964Y-57632456D01*
X20563964Y-57632456D02*
X20278250Y-57703884D01*
X20278250Y-57703884D02*
X19921107Y-57703884D01*
X19921107Y-57703884D02*
X19635392Y-57632456D01*
X19635392Y-57632456D02*
X19492535Y-57561027D01*
X19492535Y-57561027D02*
X19421107Y-57489599D01*
X19421107Y-57489599D02*
X19349678Y-57346741D01*
X19349678Y-56418170D02*
X20849678Y-55918170D01*
X20849678Y-55918170D02*
X19349678Y-55418170D01*
X73324678Y-60525312D02*
X73324678Y-60382455D01*
X73324678Y-60382455D02*
X73396107Y-60239598D01*
X73396107Y-60239598D02*
X73467535Y-60168170D01*
X73467535Y-60168170D02*
X73610392Y-60096741D01*
X73610392Y-60096741D02*
X73896107Y-60025312D01*
X73896107Y-60025312D02*
X74253250Y-60025312D01*
X74253250Y-60025312D02*
X74538964Y-60096741D01*
X74538964Y-60096741D02*
X74681821Y-60168170D01*
X74681821Y-60168170D02*
X74753250Y-60239598D01*
X74753250Y-60239598D02*
X74824678Y-60382455D01*
X74824678Y-60382455D02*
X74824678Y-60525312D01*
X74824678Y-60525312D02*
X74753250Y-60668170D01*
X74753250Y-60668170D02*
X74681821Y-60739598D01*
X74681821Y-60739598D02*
X74538964Y-60811027D01*
X74538964Y-60811027D02*
X74253250Y-60882455D01*
X74253250Y-60882455D02*
X73896107Y-60882455D01*
X73896107Y-60882455D02*
X73610392Y-60811027D01*
X73610392Y-60811027D02*
X73467535Y-60739598D01*
X73467535Y-60739598D02*
X73396107Y-60668170D01*
X73396107Y-60668170D02*
X73324678Y-60525312D01*
X74681821Y-59382456D02*
X74753250Y-59311027D01*
X74753250Y-59311027D02*
X74824678Y-59382456D01*
X74824678Y-59382456D02*
X74753250Y-59453884D01*
X74753250Y-59453884D02*
X74681821Y-59382456D01*
X74681821Y-59382456D02*
X74824678Y-59382456D01*
X74824678Y-57882455D02*
X74824678Y-58739598D01*
X74824678Y-58311027D02*
X73324678Y-58311027D01*
X73324678Y-58311027D02*
X73538964Y-58453884D01*
X73538964Y-58453884D02*
X73681821Y-58596741D01*
X73681821Y-58596741D02*
X73753250Y-58739598D01*
X73824678Y-56596742D02*
X74824678Y-56596742D01*
X73824678Y-57239599D02*
X74610392Y-57239599D01*
X74610392Y-57239599D02*
X74753250Y-57168170D01*
X74753250Y-57168170D02*
X74824678Y-57025313D01*
X74824678Y-57025313D02*
X74824678Y-56811027D01*
X74824678Y-56811027D02*
X74753250Y-56668170D01*
X74753250Y-56668170D02*
X74681821Y-56596742D01*
X74038964Y-55382456D02*
X74038964Y-55882456D01*
X74824678Y-55882456D02*
X73324678Y-55882456D01*
X73324678Y-55882456D02*
X73324678Y-55168170D01*
X44849678Y-59703883D02*
X44849678Y-60561026D01*
X44849678Y-60132455D02*
X43349678Y-60132455D01*
X43349678Y-60132455D02*
X43563964Y-60275312D01*
X43563964Y-60275312D02*
X43706821Y-60418169D01*
X43706821Y-60418169D02*
X43778250Y-60561026D01*
X43349678Y-58775312D02*
X43349678Y-58632455D01*
X43349678Y-58632455D02*
X43421107Y-58489598D01*
X43421107Y-58489598D02*
X43492535Y-58418170D01*
X43492535Y-58418170D02*
X43635392Y-58346741D01*
X43635392Y-58346741D02*
X43921107Y-58275312D01*
X43921107Y-58275312D02*
X44278250Y-58275312D01*
X44278250Y-58275312D02*
X44563964Y-58346741D01*
X44563964Y-58346741D02*
X44706821Y-58418170D01*
X44706821Y-58418170D02*
X44778250Y-58489598D01*
X44778250Y-58489598D02*
X44849678Y-58632455D01*
X44849678Y-58632455D02*
X44849678Y-58775312D01*
X44849678Y-58775312D02*
X44778250Y-58918170D01*
X44778250Y-58918170D02*
X44706821Y-58989598D01*
X44706821Y-58989598D02*
X44563964Y-59061027D01*
X44563964Y-59061027D02*
X44278250Y-59132455D01*
X44278250Y-59132455D02*
X43921107Y-59132455D01*
X43921107Y-59132455D02*
X43635392Y-59061027D01*
X43635392Y-59061027D02*
X43492535Y-58989598D01*
X43492535Y-58989598D02*
X43421107Y-58918170D01*
X43421107Y-58918170D02*
X43349678Y-58775312D01*
X43349678Y-57346741D02*
X43349678Y-57203884D01*
X43349678Y-57203884D02*
X43421107Y-57061027D01*
X43421107Y-57061027D02*
X43492535Y-56989599D01*
X43492535Y-56989599D02*
X43635392Y-56918170D01*
X43635392Y-56918170D02*
X43921107Y-56846741D01*
X43921107Y-56846741D02*
X44278250Y-56846741D01*
X44278250Y-56846741D02*
X44563964Y-56918170D01*
X44563964Y-56918170D02*
X44706821Y-56989599D01*
X44706821Y-56989599D02*
X44778250Y-57061027D01*
X44778250Y-57061027D02*
X44849678Y-57203884D01*
X44849678Y-57203884D02*
X44849678Y-57346741D01*
X44849678Y-57346741D02*
X44778250Y-57489599D01*
X44778250Y-57489599D02*
X44706821Y-57561027D01*
X44706821Y-57561027D02*
X44563964Y-57632456D01*
X44563964Y-57632456D02*
X44278250Y-57703884D01*
X44278250Y-57703884D02*
X43921107Y-57703884D01*
X43921107Y-57703884D02*
X43635392Y-57632456D01*
X43635392Y-57632456D02*
X43492535Y-57561027D01*
X43492535Y-57561027D02*
X43421107Y-57489599D01*
X43421107Y-57489599D02*
X43349678Y-57346741D01*
X43349678Y-56418170D02*
X44849678Y-55918170D01*
X44849678Y-55918170D02*
X43349678Y-55418170D01*
X61324678Y-26525312D02*
X61324678Y-26382455D01*
X61324678Y-26382455D02*
X61396107Y-26239598D01*
X61396107Y-26239598D02*
X61467535Y-26168170D01*
X61467535Y-26168170D02*
X61610392Y-26096741D01*
X61610392Y-26096741D02*
X61896107Y-26025312D01*
X61896107Y-26025312D02*
X62253250Y-26025312D01*
X62253250Y-26025312D02*
X62538964Y-26096741D01*
X62538964Y-26096741D02*
X62681821Y-26168170D01*
X62681821Y-26168170D02*
X62753250Y-26239598D01*
X62753250Y-26239598D02*
X62824678Y-26382455D01*
X62824678Y-26382455D02*
X62824678Y-26525312D01*
X62824678Y-26525312D02*
X62753250Y-26668170D01*
X62753250Y-26668170D02*
X62681821Y-26739598D01*
X62681821Y-26739598D02*
X62538964Y-26811027D01*
X62538964Y-26811027D02*
X62253250Y-26882455D01*
X62253250Y-26882455D02*
X61896107Y-26882455D01*
X61896107Y-26882455D02*
X61610392Y-26811027D01*
X61610392Y-26811027D02*
X61467535Y-26739598D01*
X61467535Y-26739598D02*
X61396107Y-26668170D01*
X61396107Y-26668170D02*
X61324678Y-26525312D01*
X62681821Y-25382456D02*
X62753250Y-25311027D01*
X62753250Y-25311027D02*
X62824678Y-25382456D01*
X62824678Y-25382456D02*
X62753250Y-25453884D01*
X62753250Y-25453884D02*
X62681821Y-25382456D01*
X62681821Y-25382456D02*
X62824678Y-25382456D01*
X62824678Y-23882455D02*
X62824678Y-24739598D01*
X62824678Y-24311027D02*
X61324678Y-24311027D01*
X61324678Y-24311027D02*
X61538964Y-24453884D01*
X61538964Y-24453884D02*
X61681821Y-24596741D01*
X61681821Y-24596741D02*
X61753250Y-24739598D01*
X61824678Y-22596742D02*
X62824678Y-22596742D01*
X61824678Y-23239599D02*
X62610392Y-23239599D01*
X62610392Y-23239599D02*
X62753250Y-23168170D01*
X62753250Y-23168170D02*
X62824678Y-23025313D01*
X62824678Y-23025313D02*
X62824678Y-22811027D01*
X62824678Y-22811027D02*
X62753250Y-22668170D01*
X62753250Y-22668170D02*
X62681821Y-22596742D01*
X62038964Y-21382456D02*
X62038964Y-21882456D01*
X62824678Y-21882456D02*
X61324678Y-21882456D01*
X61324678Y-21882456D02*
X61324678Y-21168170D01*
X68849678Y-59703883D02*
X68849678Y-60561026D01*
X68849678Y-60132455D02*
X67349678Y-60132455D01*
X67349678Y-60132455D02*
X67563964Y-60275312D01*
X67563964Y-60275312D02*
X67706821Y-60418169D01*
X67706821Y-60418169D02*
X67778250Y-60561026D01*
X67349678Y-58775312D02*
X67349678Y-58632455D01*
X67349678Y-58632455D02*
X67421107Y-58489598D01*
X67421107Y-58489598D02*
X67492535Y-58418170D01*
X67492535Y-58418170D02*
X67635392Y-58346741D01*
X67635392Y-58346741D02*
X67921107Y-58275312D01*
X67921107Y-58275312D02*
X68278250Y-58275312D01*
X68278250Y-58275312D02*
X68563964Y-58346741D01*
X68563964Y-58346741D02*
X68706821Y-58418170D01*
X68706821Y-58418170D02*
X68778250Y-58489598D01*
X68778250Y-58489598D02*
X68849678Y-58632455D01*
X68849678Y-58632455D02*
X68849678Y-58775312D01*
X68849678Y-58775312D02*
X68778250Y-58918170D01*
X68778250Y-58918170D02*
X68706821Y-58989598D01*
X68706821Y-58989598D02*
X68563964Y-59061027D01*
X68563964Y-59061027D02*
X68278250Y-59132455D01*
X68278250Y-59132455D02*
X67921107Y-59132455D01*
X67921107Y-59132455D02*
X67635392Y-59061027D01*
X67635392Y-59061027D02*
X67492535Y-58989598D01*
X67492535Y-58989598D02*
X67421107Y-58918170D01*
X67421107Y-58918170D02*
X67349678Y-58775312D01*
X67349678Y-57346741D02*
X67349678Y-57203884D01*
X67349678Y-57203884D02*
X67421107Y-57061027D01*
X67421107Y-57061027D02*
X67492535Y-56989599D01*
X67492535Y-56989599D02*
X67635392Y-56918170D01*
X67635392Y-56918170D02*
X67921107Y-56846741D01*
X67921107Y-56846741D02*
X68278250Y-56846741D01*
X68278250Y-56846741D02*
X68563964Y-56918170D01*
X68563964Y-56918170D02*
X68706821Y-56989599D01*
X68706821Y-56989599D02*
X68778250Y-57061027D01*
X68778250Y-57061027D02*
X68849678Y-57203884D01*
X68849678Y-57203884D02*
X68849678Y-57346741D01*
X68849678Y-57346741D02*
X68778250Y-57489599D01*
X68778250Y-57489599D02*
X68706821Y-57561027D01*
X68706821Y-57561027D02*
X68563964Y-57632456D01*
X68563964Y-57632456D02*
X68278250Y-57703884D01*
X68278250Y-57703884D02*
X67921107Y-57703884D01*
X67921107Y-57703884D02*
X67635392Y-57632456D01*
X67635392Y-57632456D02*
X67492535Y-57561027D01*
X67492535Y-57561027D02*
X67421107Y-57489599D01*
X67421107Y-57489599D02*
X67349678Y-57346741D01*
X67349678Y-56418170D02*
X68849678Y-55918170D01*
X68849678Y-55918170D02*
X67349678Y-55418170D01*
X8849678Y-59703883D02*
X8849678Y-60561026D01*
X8849678Y-60132455D02*
X7349678Y-60132455D01*
X7349678Y-60132455D02*
X7563964Y-60275312D01*
X7563964Y-60275312D02*
X7706821Y-60418169D01*
X7706821Y-60418169D02*
X7778250Y-60561026D01*
X7349678Y-58775312D02*
X7349678Y-58632455D01*
X7349678Y-58632455D02*
X7421107Y-58489598D01*
X7421107Y-58489598D02*
X7492535Y-58418170D01*
X7492535Y-58418170D02*
X7635392Y-58346741D01*
X7635392Y-58346741D02*
X7921107Y-58275312D01*
X7921107Y-58275312D02*
X8278250Y-58275312D01*
X8278250Y-58275312D02*
X8563964Y-58346741D01*
X8563964Y-58346741D02*
X8706821Y-58418170D01*
X8706821Y-58418170D02*
X8778250Y-58489598D01*
X8778250Y-58489598D02*
X8849678Y-58632455D01*
X8849678Y-58632455D02*
X8849678Y-58775312D01*
X8849678Y-58775312D02*
X8778250Y-58918170D01*
X8778250Y-58918170D02*
X8706821Y-58989598D01*
X8706821Y-58989598D02*
X8563964Y-59061027D01*
X8563964Y-59061027D02*
X8278250Y-59132455D01*
X8278250Y-59132455D02*
X7921107Y-59132455D01*
X7921107Y-59132455D02*
X7635392Y-59061027D01*
X7635392Y-59061027D02*
X7492535Y-58989598D01*
X7492535Y-58989598D02*
X7421107Y-58918170D01*
X7421107Y-58918170D02*
X7349678Y-58775312D01*
X7349678Y-57346741D02*
X7349678Y-57203884D01*
X7349678Y-57203884D02*
X7421107Y-57061027D01*
X7421107Y-57061027D02*
X7492535Y-56989599D01*
X7492535Y-56989599D02*
X7635392Y-56918170D01*
X7635392Y-56918170D02*
X7921107Y-56846741D01*
X7921107Y-56846741D02*
X8278250Y-56846741D01*
X8278250Y-56846741D02*
X8563964Y-56918170D01*
X8563964Y-56918170D02*
X8706821Y-56989599D01*
X8706821Y-56989599D02*
X8778250Y-57061027D01*
X8778250Y-57061027D02*
X8849678Y-57203884D01*
X8849678Y-57203884D02*
X8849678Y-57346741D01*
X8849678Y-57346741D02*
X8778250Y-57489599D01*
X8778250Y-57489599D02*
X8706821Y-57561027D01*
X8706821Y-57561027D02*
X8563964Y-57632456D01*
X8563964Y-57632456D02*
X8278250Y-57703884D01*
X8278250Y-57703884D02*
X7921107Y-57703884D01*
X7921107Y-57703884D02*
X7635392Y-57632456D01*
X7635392Y-57632456D02*
X7492535Y-57561027D01*
X7492535Y-57561027D02*
X7421107Y-57489599D01*
X7421107Y-57489599D02*
X7349678Y-57346741D01*
X7349678Y-56418170D02*
X8849678Y-55918170D01*
X8849678Y-55918170D02*
X7349678Y-55418170D01*
X49324678Y-26525312D02*
X49324678Y-26382455D01*
X49324678Y-26382455D02*
X49396107Y-26239598D01*
X49396107Y-26239598D02*
X49467535Y-26168170D01*
X49467535Y-26168170D02*
X49610392Y-26096741D01*
X49610392Y-26096741D02*
X49896107Y-26025312D01*
X49896107Y-26025312D02*
X50253250Y-26025312D01*
X50253250Y-26025312D02*
X50538964Y-26096741D01*
X50538964Y-26096741D02*
X50681821Y-26168170D01*
X50681821Y-26168170D02*
X50753250Y-26239598D01*
X50753250Y-26239598D02*
X50824678Y-26382455D01*
X50824678Y-26382455D02*
X50824678Y-26525312D01*
X50824678Y-26525312D02*
X50753250Y-26668170D01*
X50753250Y-26668170D02*
X50681821Y-26739598D01*
X50681821Y-26739598D02*
X50538964Y-26811027D01*
X50538964Y-26811027D02*
X50253250Y-26882455D01*
X50253250Y-26882455D02*
X49896107Y-26882455D01*
X49896107Y-26882455D02*
X49610392Y-26811027D01*
X49610392Y-26811027D02*
X49467535Y-26739598D01*
X49467535Y-26739598D02*
X49396107Y-26668170D01*
X49396107Y-26668170D02*
X49324678Y-26525312D01*
X50681821Y-25382456D02*
X50753250Y-25311027D01*
X50753250Y-25311027D02*
X50824678Y-25382456D01*
X50824678Y-25382456D02*
X50753250Y-25453884D01*
X50753250Y-25453884D02*
X50681821Y-25382456D01*
X50681821Y-25382456D02*
X50824678Y-25382456D01*
X50824678Y-23882455D02*
X50824678Y-24739598D01*
X50824678Y-24311027D02*
X49324678Y-24311027D01*
X49324678Y-24311027D02*
X49538964Y-24453884D01*
X49538964Y-24453884D02*
X49681821Y-24596741D01*
X49681821Y-24596741D02*
X49753250Y-24739598D01*
X49824678Y-22596742D02*
X50824678Y-22596742D01*
X49824678Y-23239599D02*
X50610392Y-23239599D01*
X50610392Y-23239599D02*
X50753250Y-23168170D01*
X50753250Y-23168170D02*
X50824678Y-23025313D01*
X50824678Y-23025313D02*
X50824678Y-22811027D01*
X50824678Y-22811027D02*
X50753250Y-22668170D01*
X50753250Y-22668170D02*
X50681821Y-22596742D01*
X50038964Y-21382456D02*
X50038964Y-21882456D01*
X50824678Y-21882456D02*
X49324678Y-21882456D01*
X49324678Y-21882456D02*
X49324678Y-21168170D01*
X49324678Y-60525312D02*
X49324678Y-60382455D01*
X49324678Y-60382455D02*
X49396107Y-60239598D01*
X49396107Y-60239598D02*
X49467535Y-60168170D01*
X49467535Y-60168170D02*
X49610392Y-60096741D01*
X49610392Y-60096741D02*
X49896107Y-60025312D01*
X49896107Y-60025312D02*
X50253250Y-60025312D01*
X50253250Y-60025312D02*
X50538964Y-60096741D01*
X50538964Y-60096741D02*
X50681821Y-60168170D01*
X50681821Y-60168170D02*
X50753250Y-60239598D01*
X50753250Y-60239598D02*
X50824678Y-60382455D01*
X50824678Y-60382455D02*
X50824678Y-60525312D01*
X50824678Y-60525312D02*
X50753250Y-60668170D01*
X50753250Y-60668170D02*
X50681821Y-60739598D01*
X50681821Y-60739598D02*
X50538964Y-60811027D01*
X50538964Y-60811027D02*
X50253250Y-60882455D01*
X50253250Y-60882455D02*
X49896107Y-60882455D01*
X49896107Y-60882455D02*
X49610392Y-60811027D01*
X49610392Y-60811027D02*
X49467535Y-60739598D01*
X49467535Y-60739598D02*
X49396107Y-60668170D01*
X49396107Y-60668170D02*
X49324678Y-60525312D01*
X50681821Y-59382456D02*
X50753250Y-59311027D01*
X50753250Y-59311027D02*
X50824678Y-59382456D01*
X50824678Y-59382456D02*
X50753250Y-59453884D01*
X50753250Y-59453884D02*
X50681821Y-59382456D01*
X50681821Y-59382456D02*
X50824678Y-59382456D01*
X50824678Y-57882455D02*
X50824678Y-58739598D01*
X50824678Y-58311027D02*
X49324678Y-58311027D01*
X49324678Y-58311027D02*
X49538964Y-58453884D01*
X49538964Y-58453884D02*
X49681821Y-58596741D01*
X49681821Y-58596741D02*
X49753250Y-58739598D01*
X49824678Y-56596742D02*
X50824678Y-56596742D01*
X49824678Y-57239599D02*
X50610392Y-57239599D01*
X50610392Y-57239599D02*
X50753250Y-57168170D01*
X50753250Y-57168170D02*
X50824678Y-57025313D01*
X50824678Y-57025313D02*
X50824678Y-56811027D01*
X50824678Y-56811027D02*
X50753250Y-56668170D01*
X50753250Y-56668170D02*
X50681821Y-56596742D01*
X50038964Y-55382456D02*
X50038964Y-55882456D01*
X50824678Y-55882456D02*
X49324678Y-55882456D01*
X49324678Y-55882456D02*
X49324678Y-55168170D01*
X1324678Y-26525312D02*
X1324678Y-26382455D01*
X1324678Y-26382455D02*
X1396107Y-26239598D01*
X1396107Y-26239598D02*
X1467535Y-26168170D01*
X1467535Y-26168170D02*
X1610392Y-26096741D01*
X1610392Y-26096741D02*
X1896107Y-26025312D01*
X1896107Y-26025312D02*
X2253250Y-26025312D01*
X2253250Y-26025312D02*
X2538964Y-26096741D01*
X2538964Y-26096741D02*
X2681821Y-26168170D01*
X2681821Y-26168170D02*
X2753250Y-26239598D01*
X2753250Y-26239598D02*
X2824678Y-26382455D01*
X2824678Y-26382455D02*
X2824678Y-26525312D01*
X2824678Y-26525312D02*
X2753250Y-26668170D01*
X2753250Y-26668170D02*
X2681821Y-26739598D01*
X2681821Y-26739598D02*
X2538964Y-26811027D01*
X2538964Y-26811027D02*
X2253250Y-26882455D01*
X2253250Y-26882455D02*
X1896107Y-26882455D01*
X1896107Y-26882455D02*
X1610392Y-26811027D01*
X1610392Y-26811027D02*
X1467535Y-26739598D01*
X1467535Y-26739598D02*
X1396107Y-26668170D01*
X1396107Y-26668170D02*
X1324678Y-26525312D01*
X2681821Y-25382456D02*
X2753250Y-25311027D01*
X2753250Y-25311027D02*
X2824678Y-25382456D01*
X2824678Y-25382456D02*
X2753250Y-25453884D01*
X2753250Y-25453884D02*
X2681821Y-25382456D01*
X2681821Y-25382456D02*
X2824678Y-25382456D01*
X2824678Y-23882455D02*
X2824678Y-24739598D01*
X2824678Y-24311027D02*
X1324678Y-24311027D01*
X1324678Y-24311027D02*
X1538964Y-24453884D01*
X1538964Y-24453884D02*
X1681821Y-24596741D01*
X1681821Y-24596741D02*
X1753250Y-24739598D01*
X1824678Y-22596742D02*
X2824678Y-22596742D01*
X1824678Y-23239599D02*
X2610392Y-23239599D01*
X2610392Y-23239599D02*
X2753250Y-23168170D01*
X2753250Y-23168170D02*
X2824678Y-23025313D01*
X2824678Y-23025313D02*
X2824678Y-22811027D01*
X2824678Y-22811027D02*
X2753250Y-22668170D01*
X2753250Y-22668170D02*
X2681821Y-22596742D01*
X2038964Y-21382456D02*
X2038964Y-21882456D01*
X2824678Y-21882456D02*
X1324678Y-21882456D01*
X1324678Y-21882456D02*
X1324678Y-21168170D01*
X73324678Y-26525312D02*
X73324678Y-26382455D01*
X73324678Y-26382455D02*
X73396107Y-26239598D01*
X73396107Y-26239598D02*
X73467535Y-26168170D01*
X73467535Y-26168170D02*
X73610392Y-26096741D01*
X73610392Y-26096741D02*
X73896107Y-26025312D01*
X73896107Y-26025312D02*
X74253250Y-26025312D01*
X74253250Y-26025312D02*
X74538964Y-26096741D01*
X74538964Y-26096741D02*
X74681821Y-26168170D01*
X74681821Y-26168170D02*
X74753250Y-26239598D01*
X74753250Y-26239598D02*
X74824678Y-26382455D01*
X74824678Y-26382455D02*
X74824678Y-26525312D01*
X74824678Y-26525312D02*
X74753250Y-26668170D01*
X74753250Y-26668170D02*
X74681821Y-26739598D01*
X74681821Y-26739598D02*
X74538964Y-26811027D01*
X74538964Y-26811027D02*
X74253250Y-26882455D01*
X74253250Y-26882455D02*
X73896107Y-26882455D01*
X73896107Y-26882455D02*
X73610392Y-26811027D01*
X73610392Y-26811027D02*
X73467535Y-26739598D01*
X73467535Y-26739598D02*
X73396107Y-26668170D01*
X73396107Y-26668170D02*
X73324678Y-26525312D01*
X74681821Y-25382456D02*
X74753250Y-25311027D01*
X74753250Y-25311027D02*
X74824678Y-25382456D01*
X74824678Y-25382456D02*
X74753250Y-25453884D01*
X74753250Y-25453884D02*
X74681821Y-25382456D01*
X74681821Y-25382456D02*
X74824678Y-25382456D01*
X74824678Y-23882455D02*
X74824678Y-24739598D01*
X74824678Y-24311027D02*
X73324678Y-24311027D01*
X73324678Y-24311027D02*
X73538964Y-24453884D01*
X73538964Y-24453884D02*
X73681821Y-24596741D01*
X73681821Y-24596741D02*
X73753250Y-24739598D01*
X73824678Y-22596742D02*
X74824678Y-22596742D01*
X73824678Y-23239599D02*
X74610392Y-23239599D01*
X74610392Y-23239599D02*
X74753250Y-23168170D01*
X74753250Y-23168170D02*
X74824678Y-23025313D01*
X74824678Y-23025313D02*
X74824678Y-22811027D01*
X74824678Y-22811027D02*
X74753250Y-22668170D01*
X74753250Y-22668170D02*
X74681821Y-22596742D01*
X74038964Y-21382456D02*
X74038964Y-21882456D01*
X74824678Y-21882456D02*
X73324678Y-21882456D01*
X73324678Y-21882456D02*
X73324678Y-21168170D01*
X32849678Y-25703883D02*
X32849678Y-26561026D01*
X32849678Y-26132455D02*
X31349678Y-26132455D01*
X31349678Y-26132455D02*
X31563964Y-26275312D01*
X31563964Y-26275312D02*
X31706821Y-26418169D01*
X31706821Y-26418169D02*
X31778250Y-26561026D01*
X31349678Y-24775312D02*
X31349678Y-24632455D01*
X31349678Y-24632455D02*
X31421107Y-24489598D01*
X31421107Y-24489598D02*
X31492535Y-24418170D01*
X31492535Y-24418170D02*
X31635392Y-24346741D01*
X31635392Y-24346741D02*
X31921107Y-24275312D01*
X31921107Y-24275312D02*
X32278250Y-24275312D01*
X32278250Y-24275312D02*
X32563964Y-24346741D01*
X32563964Y-24346741D02*
X32706821Y-24418170D01*
X32706821Y-24418170D02*
X32778250Y-24489598D01*
X32778250Y-24489598D02*
X32849678Y-24632455D01*
X32849678Y-24632455D02*
X32849678Y-24775312D01*
X32849678Y-24775312D02*
X32778250Y-24918170D01*
X32778250Y-24918170D02*
X32706821Y-24989598D01*
X32706821Y-24989598D02*
X32563964Y-25061027D01*
X32563964Y-25061027D02*
X32278250Y-25132455D01*
X32278250Y-25132455D02*
X31921107Y-25132455D01*
X31921107Y-25132455D02*
X31635392Y-25061027D01*
X31635392Y-25061027D02*
X31492535Y-24989598D01*
X31492535Y-24989598D02*
X31421107Y-24918170D01*
X31421107Y-24918170D02*
X31349678Y-24775312D01*
X31349678Y-23346741D02*
X31349678Y-23203884D01*
X31349678Y-23203884D02*
X31421107Y-23061027D01*
X31421107Y-23061027D02*
X31492535Y-22989599D01*
X31492535Y-22989599D02*
X31635392Y-22918170D01*
X31635392Y-22918170D02*
X31921107Y-22846741D01*
X31921107Y-22846741D02*
X32278250Y-22846741D01*
X32278250Y-22846741D02*
X32563964Y-22918170D01*
X32563964Y-22918170D02*
X32706821Y-22989599D01*
X32706821Y-22989599D02*
X32778250Y-23061027D01*
X32778250Y-23061027D02*
X32849678Y-23203884D01*
X32849678Y-23203884D02*
X32849678Y-23346741D01*
X32849678Y-23346741D02*
X32778250Y-23489599D01*
X32778250Y-23489599D02*
X32706821Y-23561027D01*
X32706821Y-23561027D02*
X32563964Y-23632456D01*
X32563964Y-23632456D02*
X32278250Y-23703884D01*
X32278250Y-23703884D02*
X31921107Y-23703884D01*
X31921107Y-23703884D02*
X31635392Y-23632456D01*
X31635392Y-23632456D02*
X31492535Y-23561027D01*
X31492535Y-23561027D02*
X31421107Y-23489599D01*
X31421107Y-23489599D02*
X31349678Y-23346741D01*
X31349678Y-22418170D02*
X32849678Y-21918170D01*
X32849678Y-21918170D02*
X31349678Y-21418170D01*
X20849678Y-25703883D02*
X20849678Y-26561026D01*
X20849678Y-26132455D02*
X19349678Y-26132455D01*
X19349678Y-26132455D02*
X19563964Y-26275312D01*
X19563964Y-26275312D02*
X19706821Y-26418169D01*
X19706821Y-26418169D02*
X19778250Y-26561026D01*
X19349678Y-24775312D02*
X19349678Y-24632455D01*
X19349678Y-24632455D02*
X19421107Y-24489598D01*
X19421107Y-24489598D02*
X19492535Y-24418170D01*
X19492535Y-24418170D02*
X19635392Y-24346741D01*
X19635392Y-24346741D02*
X19921107Y-24275312D01*
X19921107Y-24275312D02*
X20278250Y-24275312D01*
X20278250Y-24275312D02*
X20563964Y-24346741D01*
X20563964Y-24346741D02*
X20706821Y-24418170D01*
X20706821Y-24418170D02*
X20778250Y-24489598D01*
X20778250Y-24489598D02*
X20849678Y-24632455D01*
X20849678Y-24632455D02*
X20849678Y-24775312D01*
X20849678Y-24775312D02*
X20778250Y-24918170D01*
X20778250Y-24918170D02*
X20706821Y-24989598D01*
X20706821Y-24989598D02*
X20563964Y-25061027D01*
X20563964Y-25061027D02*
X20278250Y-25132455D01*
X20278250Y-25132455D02*
X19921107Y-25132455D01*
X19921107Y-25132455D02*
X19635392Y-25061027D01*
X19635392Y-25061027D02*
X19492535Y-24989598D01*
X19492535Y-24989598D02*
X19421107Y-24918170D01*
X19421107Y-24918170D02*
X19349678Y-24775312D01*
X19349678Y-23346741D02*
X19349678Y-23203884D01*
X19349678Y-23203884D02*
X19421107Y-23061027D01*
X19421107Y-23061027D02*
X19492535Y-22989599D01*
X19492535Y-22989599D02*
X19635392Y-22918170D01*
X19635392Y-22918170D02*
X19921107Y-22846741D01*
X19921107Y-22846741D02*
X20278250Y-22846741D01*
X20278250Y-22846741D02*
X20563964Y-22918170D01*
X20563964Y-22918170D02*
X20706821Y-22989599D01*
X20706821Y-22989599D02*
X20778250Y-23061027D01*
X20778250Y-23061027D02*
X20849678Y-23203884D01*
X20849678Y-23203884D02*
X20849678Y-23346741D01*
X20849678Y-23346741D02*
X20778250Y-23489599D01*
X20778250Y-23489599D02*
X20706821Y-23561027D01*
X20706821Y-23561027D02*
X20563964Y-23632456D01*
X20563964Y-23632456D02*
X20278250Y-23703884D01*
X20278250Y-23703884D02*
X19921107Y-23703884D01*
X19921107Y-23703884D02*
X19635392Y-23632456D01*
X19635392Y-23632456D02*
X19492535Y-23561027D01*
X19492535Y-23561027D02*
X19421107Y-23489599D01*
X19421107Y-23489599D02*
X19349678Y-23346741D01*
X19349678Y-22418170D02*
X20849678Y-21918170D01*
X20849678Y-21918170D02*
X19349678Y-21418170D01*
X13324678Y-60525312D02*
X13324678Y-60382455D01*
X13324678Y-60382455D02*
X13396107Y-60239598D01*
X13396107Y-60239598D02*
X13467535Y-60168170D01*
X13467535Y-60168170D02*
X13610392Y-60096741D01*
X13610392Y-60096741D02*
X13896107Y-60025312D01*
X13896107Y-60025312D02*
X14253250Y-60025312D01*
X14253250Y-60025312D02*
X14538964Y-60096741D01*
X14538964Y-60096741D02*
X14681821Y-60168170D01*
X14681821Y-60168170D02*
X14753250Y-60239598D01*
X14753250Y-60239598D02*
X14824678Y-60382455D01*
X14824678Y-60382455D02*
X14824678Y-60525312D01*
X14824678Y-60525312D02*
X14753250Y-60668170D01*
X14753250Y-60668170D02*
X14681821Y-60739598D01*
X14681821Y-60739598D02*
X14538964Y-60811027D01*
X14538964Y-60811027D02*
X14253250Y-60882455D01*
X14253250Y-60882455D02*
X13896107Y-60882455D01*
X13896107Y-60882455D02*
X13610392Y-60811027D01*
X13610392Y-60811027D02*
X13467535Y-60739598D01*
X13467535Y-60739598D02*
X13396107Y-60668170D01*
X13396107Y-60668170D02*
X13324678Y-60525312D01*
X14681821Y-59382456D02*
X14753250Y-59311027D01*
X14753250Y-59311027D02*
X14824678Y-59382456D01*
X14824678Y-59382456D02*
X14753250Y-59453884D01*
X14753250Y-59453884D02*
X14681821Y-59382456D01*
X14681821Y-59382456D02*
X14824678Y-59382456D01*
X14824678Y-57882455D02*
X14824678Y-58739598D01*
X14824678Y-58311027D02*
X13324678Y-58311027D01*
X13324678Y-58311027D02*
X13538964Y-58453884D01*
X13538964Y-58453884D02*
X13681821Y-58596741D01*
X13681821Y-58596741D02*
X13753250Y-58739598D01*
X13824678Y-56596742D02*
X14824678Y-56596742D01*
X13824678Y-57239599D02*
X14610392Y-57239599D01*
X14610392Y-57239599D02*
X14753250Y-57168170D01*
X14753250Y-57168170D02*
X14824678Y-57025313D01*
X14824678Y-57025313D02*
X14824678Y-56811027D01*
X14824678Y-56811027D02*
X14753250Y-56668170D01*
X14753250Y-56668170D02*
X14681821Y-56596742D01*
X14038964Y-55382456D02*
X14038964Y-55882456D01*
X14824678Y-55882456D02*
X13324678Y-55882456D01*
X13324678Y-55882456D02*
X13324678Y-55168170D01*
X80849678Y-25703883D02*
X80849678Y-26561026D01*
X80849678Y-26132455D02*
X79349678Y-26132455D01*
X79349678Y-26132455D02*
X79563964Y-26275312D01*
X79563964Y-26275312D02*
X79706821Y-26418169D01*
X79706821Y-26418169D02*
X79778250Y-26561026D01*
X79349678Y-24775312D02*
X79349678Y-24632455D01*
X79349678Y-24632455D02*
X79421107Y-24489598D01*
X79421107Y-24489598D02*
X79492535Y-24418170D01*
X79492535Y-24418170D02*
X79635392Y-24346741D01*
X79635392Y-24346741D02*
X79921107Y-24275312D01*
X79921107Y-24275312D02*
X80278250Y-24275312D01*
X80278250Y-24275312D02*
X80563964Y-24346741D01*
X80563964Y-24346741D02*
X80706821Y-24418170D01*
X80706821Y-24418170D02*
X80778250Y-24489598D01*
X80778250Y-24489598D02*
X80849678Y-24632455D01*
X80849678Y-24632455D02*
X80849678Y-24775312D01*
X80849678Y-24775312D02*
X80778250Y-24918170D01*
X80778250Y-24918170D02*
X80706821Y-24989598D01*
X80706821Y-24989598D02*
X80563964Y-25061027D01*
X80563964Y-25061027D02*
X80278250Y-25132455D01*
X80278250Y-25132455D02*
X79921107Y-25132455D01*
X79921107Y-25132455D02*
X79635392Y-25061027D01*
X79635392Y-25061027D02*
X79492535Y-24989598D01*
X79492535Y-24989598D02*
X79421107Y-24918170D01*
X79421107Y-24918170D02*
X79349678Y-24775312D01*
X79349678Y-23346741D02*
X79349678Y-23203884D01*
X79349678Y-23203884D02*
X79421107Y-23061027D01*
X79421107Y-23061027D02*
X79492535Y-22989599D01*
X79492535Y-22989599D02*
X79635392Y-22918170D01*
X79635392Y-22918170D02*
X79921107Y-22846741D01*
X79921107Y-22846741D02*
X80278250Y-22846741D01*
X80278250Y-22846741D02*
X80563964Y-22918170D01*
X80563964Y-22918170D02*
X80706821Y-22989599D01*
X80706821Y-22989599D02*
X80778250Y-23061027D01*
X80778250Y-23061027D02*
X80849678Y-23203884D01*
X80849678Y-23203884D02*
X80849678Y-23346741D01*
X80849678Y-23346741D02*
X80778250Y-23489599D01*
X80778250Y-23489599D02*
X80706821Y-23561027D01*
X80706821Y-23561027D02*
X80563964Y-23632456D01*
X80563964Y-23632456D02*
X80278250Y-23703884D01*
X80278250Y-23703884D02*
X79921107Y-23703884D01*
X79921107Y-23703884D02*
X79635392Y-23632456D01*
X79635392Y-23632456D02*
X79492535Y-23561027D01*
X79492535Y-23561027D02*
X79421107Y-23489599D01*
X79421107Y-23489599D02*
X79349678Y-23346741D01*
X79349678Y-22418170D02*
X80849678Y-21918170D01*
X80849678Y-21918170D02*
X79349678Y-21418170D01*
X68849678Y-25703883D02*
X68849678Y-26561026D01*
X68849678Y-26132455D02*
X67349678Y-26132455D01*
X67349678Y-26132455D02*
X67563964Y-26275312D01*
X67563964Y-26275312D02*
X67706821Y-26418169D01*
X67706821Y-26418169D02*
X67778250Y-26561026D01*
X67349678Y-24775312D02*
X67349678Y-24632455D01*
X67349678Y-24632455D02*
X67421107Y-24489598D01*
X67421107Y-24489598D02*
X67492535Y-24418170D01*
X67492535Y-24418170D02*
X67635392Y-24346741D01*
X67635392Y-24346741D02*
X67921107Y-24275312D01*
X67921107Y-24275312D02*
X68278250Y-24275312D01*
X68278250Y-24275312D02*
X68563964Y-24346741D01*
X68563964Y-24346741D02*
X68706821Y-24418170D01*
X68706821Y-24418170D02*
X68778250Y-24489598D01*
X68778250Y-24489598D02*
X68849678Y-24632455D01*
X68849678Y-24632455D02*
X68849678Y-24775312D01*
X68849678Y-24775312D02*
X68778250Y-24918170D01*
X68778250Y-24918170D02*
X68706821Y-24989598D01*
X68706821Y-24989598D02*
X68563964Y-25061027D01*
X68563964Y-25061027D02*
X68278250Y-25132455D01*
X68278250Y-25132455D02*
X67921107Y-25132455D01*
X67921107Y-25132455D02*
X67635392Y-25061027D01*
X67635392Y-25061027D02*
X67492535Y-24989598D01*
X67492535Y-24989598D02*
X67421107Y-24918170D01*
X67421107Y-24918170D02*
X67349678Y-24775312D01*
X67349678Y-23346741D02*
X67349678Y-23203884D01*
X67349678Y-23203884D02*
X67421107Y-23061027D01*
X67421107Y-23061027D02*
X67492535Y-22989599D01*
X67492535Y-22989599D02*
X67635392Y-22918170D01*
X67635392Y-22918170D02*
X67921107Y-22846741D01*
X67921107Y-22846741D02*
X68278250Y-22846741D01*
X68278250Y-22846741D02*
X68563964Y-22918170D01*
X68563964Y-22918170D02*
X68706821Y-22989599D01*
X68706821Y-22989599D02*
X68778250Y-23061027D01*
X68778250Y-23061027D02*
X68849678Y-23203884D01*
X68849678Y-23203884D02*
X68849678Y-23346741D01*
X68849678Y-23346741D02*
X68778250Y-23489599D01*
X68778250Y-23489599D02*
X68706821Y-23561027D01*
X68706821Y-23561027D02*
X68563964Y-23632456D01*
X68563964Y-23632456D02*
X68278250Y-23703884D01*
X68278250Y-23703884D02*
X67921107Y-23703884D01*
X67921107Y-23703884D02*
X67635392Y-23632456D01*
X67635392Y-23632456D02*
X67492535Y-23561027D01*
X67492535Y-23561027D02*
X67421107Y-23489599D01*
X67421107Y-23489599D02*
X67349678Y-23346741D01*
X67349678Y-22418170D02*
X68849678Y-21918170D01*
X68849678Y-21918170D02*
X67349678Y-21418170D01*
X37324678Y-26525312D02*
X37324678Y-26382455D01*
X37324678Y-26382455D02*
X37396107Y-26239598D01*
X37396107Y-26239598D02*
X37467535Y-26168170D01*
X37467535Y-26168170D02*
X37610392Y-26096741D01*
X37610392Y-26096741D02*
X37896107Y-26025312D01*
X37896107Y-26025312D02*
X38253250Y-26025312D01*
X38253250Y-26025312D02*
X38538964Y-26096741D01*
X38538964Y-26096741D02*
X38681821Y-26168170D01*
X38681821Y-26168170D02*
X38753250Y-26239598D01*
X38753250Y-26239598D02*
X38824678Y-26382455D01*
X38824678Y-26382455D02*
X38824678Y-26525312D01*
X38824678Y-26525312D02*
X38753250Y-26668170D01*
X38753250Y-26668170D02*
X38681821Y-26739598D01*
X38681821Y-26739598D02*
X38538964Y-26811027D01*
X38538964Y-26811027D02*
X38253250Y-26882455D01*
X38253250Y-26882455D02*
X37896107Y-26882455D01*
X37896107Y-26882455D02*
X37610392Y-26811027D01*
X37610392Y-26811027D02*
X37467535Y-26739598D01*
X37467535Y-26739598D02*
X37396107Y-26668170D01*
X37396107Y-26668170D02*
X37324678Y-26525312D01*
X38681821Y-25382456D02*
X38753250Y-25311027D01*
X38753250Y-25311027D02*
X38824678Y-25382456D01*
X38824678Y-25382456D02*
X38753250Y-25453884D01*
X38753250Y-25453884D02*
X38681821Y-25382456D01*
X38681821Y-25382456D02*
X38824678Y-25382456D01*
X38824678Y-23882455D02*
X38824678Y-24739598D01*
X38824678Y-24311027D02*
X37324678Y-24311027D01*
X37324678Y-24311027D02*
X37538964Y-24453884D01*
X37538964Y-24453884D02*
X37681821Y-24596741D01*
X37681821Y-24596741D02*
X37753250Y-24739598D01*
X37824678Y-22596742D02*
X38824678Y-22596742D01*
X37824678Y-23239599D02*
X38610392Y-23239599D01*
X38610392Y-23239599D02*
X38753250Y-23168170D01*
X38753250Y-23168170D02*
X38824678Y-23025313D01*
X38824678Y-23025313D02*
X38824678Y-22811027D01*
X38824678Y-22811027D02*
X38753250Y-22668170D01*
X38753250Y-22668170D02*
X38681821Y-22596742D01*
X38038964Y-21382456D02*
X38038964Y-21882456D01*
X38824678Y-21882456D02*
X37324678Y-21882456D01*
X37324678Y-21882456D02*
X37324678Y-21168170D01*
X25324678Y-26525312D02*
X25324678Y-26382455D01*
X25324678Y-26382455D02*
X25396107Y-26239598D01*
X25396107Y-26239598D02*
X25467535Y-26168170D01*
X25467535Y-26168170D02*
X25610392Y-26096741D01*
X25610392Y-26096741D02*
X25896107Y-26025312D01*
X25896107Y-26025312D02*
X26253250Y-26025312D01*
X26253250Y-26025312D02*
X26538964Y-26096741D01*
X26538964Y-26096741D02*
X26681821Y-26168170D01*
X26681821Y-26168170D02*
X26753250Y-26239598D01*
X26753250Y-26239598D02*
X26824678Y-26382455D01*
X26824678Y-26382455D02*
X26824678Y-26525312D01*
X26824678Y-26525312D02*
X26753250Y-26668170D01*
X26753250Y-26668170D02*
X26681821Y-26739598D01*
X26681821Y-26739598D02*
X26538964Y-26811027D01*
X26538964Y-26811027D02*
X26253250Y-26882455D01*
X26253250Y-26882455D02*
X25896107Y-26882455D01*
X25896107Y-26882455D02*
X25610392Y-26811027D01*
X25610392Y-26811027D02*
X25467535Y-26739598D01*
X25467535Y-26739598D02*
X25396107Y-26668170D01*
X25396107Y-26668170D02*
X25324678Y-26525312D01*
X26681821Y-25382456D02*
X26753250Y-25311027D01*
X26753250Y-25311027D02*
X26824678Y-25382456D01*
X26824678Y-25382456D02*
X26753250Y-25453884D01*
X26753250Y-25453884D02*
X26681821Y-25382456D01*
X26681821Y-25382456D02*
X26824678Y-25382456D01*
X26824678Y-23882455D02*
X26824678Y-24739598D01*
X26824678Y-24311027D02*
X25324678Y-24311027D01*
X25324678Y-24311027D02*
X25538964Y-24453884D01*
X25538964Y-24453884D02*
X25681821Y-24596741D01*
X25681821Y-24596741D02*
X25753250Y-24739598D01*
X25824678Y-22596742D02*
X26824678Y-22596742D01*
X25824678Y-23239599D02*
X26610392Y-23239599D01*
X26610392Y-23239599D02*
X26753250Y-23168170D01*
X26753250Y-23168170D02*
X26824678Y-23025313D01*
X26824678Y-23025313D02*
X26824678Y-22811027D01*
X26824678Y-22811027D02*
X26753250Y-22668170D01*
X26753250Y-22668170D02*
X26681821Y-22596742D01*
X26038964Y-21382456D02*
X26038964Y-21882456D01*
X26824678Y-21882456D02*
X25324678Y-21882456D01*
X25324678Y-21882456D02*
X25324678Y-21168170D01*
X25324678Y-60525312D02*
X25324678Y-60382455D01*
X25324678Y-60382455D02*
X25396107Y-60239598D01*
X25396107Y-60239598D02*
X25467535Y-60168170D01*
X25467535Y-60168170D02*
X25610392Y-60096741D01*
X25610392Y-60096741D02*
X25896107Y-60025312D01*
X25896107Y-60025312D02*
X26253250Y-60025312D01*
X26253250Y-60025312D02*
X26538964Y-60096741D01*
X26538964Y-60096741D02*
X26681821Y-60168170D01*
X26681821Y-60168170D02*
X26753250Y-60239598D01*
X26753250Y-60239598D02*
X26824678Y-60382455D01*
X26824678Y-60382455D02*
X26824678Y-60525312D01*
X26824678Y-60525312D02*
X26753250Y-60668170D01*
X26753250Y-60668170D02*
X26681821Y-60739598D01*
X26681821Y-60739598D02*
X26538964Y-60811027D01*
X26538964Y-60811027D02*
X26253250Y-60882455D01*
X26253250Y-60882455D02*
X25896107Y-60882455D01*
X25896107Y-60882455D02*
X25610392Y-60811027D01*
X25610392Y-60811027D02*
X25467535Y-60739598D01*
X25467535Y-60739598D02*
X25396107Y-60668170D01*
X25396107Y-60668170D02*
X25324678Y-60525312D01*
X26681821Y-59382456D02*
X26753250Y-59311027D01*
X26753250Y-59311027D02*
X26824678Y-59382456D01*
X26824678Y-59382456D02*
X26753250Y-59453884D01*
X26753250Y-59453884D02*
X26681821Y-59382456D01*
X26681821Y-59382456D02*
X26824678Y-59382456D01*
X26824678Y-57882455D02*
X26824678Y-58739598D01*
X26824678Y-58311027D02*
X25324678Y-58311027D01*
X25324678Y-58311027D02*
X25538964Y-58453884D01*
X25538964Y-58453884D02*
X25681821Y-58596741D01*
X25681821Y-58596741D02*
X25753250Y-58739598D01*
X25824678Y-56596742D02*
X26824678Y-56596742D01*
X25824678Y-57239599D02*
X26610392Y-57239599D01*
X26610392Y-57239599D02*
X26753250Y-57168170D01*
X26753250Y-57168170D02*
X26824678Y-57025313D01*
X26824678Y-57025313D02*
X26824678Y-56811027D01*
X26824678Y-56811027D02*
X26753250Y-56668170D01*
X26753250Y-56668170D02*
X26681821Y-56596742D01*
X26038964Y-55382456D02*
X26038964Y-55882456D01*
X26824678Y-55882456D02*
X25324678Y-55882456D01*
X25324678Y-55882456D02*
X25324678Y-55168170D01*
X56849678Y-59703883D02*
X56849678Y-60561026D01*
X56849678Y-60132455D02*
X55349678Y-60132455D01*
X55349678Y-60132455D02*
X55563964Y-60275312D01*
X55563964Y-60275312D02*
X55706821Y-60418169D01*
X55706821Y-60418169D02*
X55778250Y-60561026D01*
X55349678Y-58775312D02*
X55349678Y-58632455D01*
X55349678Y-58632455D02*
X55421107Y-58489598D01*
X55421107Y-58489598D02*
X55492535Y-58418170D01*
X55492535Y-58418170D02*
X55635392Y-58346741D01*
X55635392Y-58346741D02*
X55921107Y-58275312D01*
X55921107Y-58275312D02*
X56278250Y-58275312D01*
X56278250Y-58275312D02*
X56563964Y-58346741D01*
X56563964Y-58346741D02*
X56706821Y-58418170D01*
X56706821Y-58418170D02*
X56778250Y-58489598D01*
X56778250Y-58489598D02*
X56849678Y-58632455D01*
X56849678Y-58632455D02*
X56849678Y-58775312D01*
X56849678Y-58775312D02*
X56778250Y-58918170D01*
X56778250Y-58918170D02*
X56706821Y-58989598D01*
X56706821Y-58989598D02*
X56563964Y-59061027D01*
X56563964Y-59061027D02*
X56278250Y-59132455D01*
X56278250Y-59132455D02*
X55921107Y-59132455D01*
X55921107Y-59132455D02*
X55635392Y-59061027D01*
X55635392Y-59061027D02*
X55492535Y-58989598D01*
X55492535Y-58989598D02*
X55421107Y-58918170D01*
X55421107Y-58918170D02*
X55349678Y-58775312D01*
X55349678Y-57346741D02*
X55349678Y-57203884D01*
X55349678Y-57203884D02*
X55421107Y-57061027D01*
X55421107Y-57061027D02*
X55492535Y-56989599D01*
X55492535Y-56989599D02*
X55635392Y-56918170D01*
X55635392Y-56918170D02*
X55921107Y-56846741D01*
X55921107Y-56846741D02*
X56278250Y-56846741D01*
X56278250Y-56846741D02*
X56563964Y-56918170D01*
X56563964Y-56918170D02*
X56706821Y-56989599D01*
X56706821Y-56989599D02*
X56778250Y-57061027D01*
X56778250Y-57061027D02*
X56849678Y-57203884D01*
X56849678Y-57203884D02*
X56849678Y-57346741D01*
X56849678Y-57346741D02*
X56778250Y-57489599D01*
X56778250Y-57489599D02*
X56706821Y-57561027D01*
X56706821Y-57561027D02*
X56563964Y-57632456D01*
X56563964Y-57632456D02*
X56278250Y-57703884D01*
X56278250Y-57703884D02*
X55921107Y-57703884D01*
X55921107Y-57703884D02*
X55635392Y-57632456D01*
X55635392Y-57632456D02*
X55492535Y-57561027D01*
X55492535Y-57561027D02*
X55421107Y-57489599D01*
X55421107Y-57489599D02*
X55349678Y-57346741D01*
X55349678Y-56418170D02*
X56849678Y-55918170D01*
X56849678Y-55918170D02*
X55349678Y-55418170D01*
X32849678Y-59703883D02*
X32849678Y-60561026D01*
X32849678Y-60132455D02*
X31349678Y-60132455D01*
X31349678Y-60132455D02*
X31563964Y-60275312D01*
X31563964Y-60275312D02*
X31706821Y-60418169D01*
X31706821Y-60418169D02*
X31778250Y-60561026D01*
X31349678Y-58775312D02*
X31349678Y-58632455D01*
X31349678Y-58632455D02*
X31421107Y-58489598D01*
X31421107Y-58489598D02*
X31492535Y-58418170D01*
X31492535Y-58418170D02*
X31635392Y-58346741D01*
X31635392Y-58346741D02*
X31921107Y-58275312D01*
X31921107Y-58275312D02*
X32278250Y-58275312D01*
X32278250Y-58275312D02*
X32563964Y-58346741D01*
X32563964Y-58346741D02*
X32706821Y-58418170D01*
X32706821Y-58418170D02*
X32778250Y-58489598D01*
X32778250Y-58489598D02*
X32849678Y-58632455D01*
X32849678Y-58632455D02*
X32849678Y-58775312D01*
X32849678Y-58775312D02*
X32778250Y-58918170D01*
X32778250Y-58918170D02*
X32706821Y-58989598D01*
X32706821Y-58989598D02*
X32563964Y-59061027D01*
X32563964Y-59061027D02*
X32278250Y-59132455D01*
X32278250Y-59132455D02*
X31921107Y-59132455D01*
X31921107Y-59132455D02*
X31635392Y-59061027D01*
X31635392Y-59061027D02*
X31492535Y-58989598D01*
X31492535Y-58989598D02*
X31421107Y-58918170D01*
X31421107Y-58918170D02*
X31349678Y-58775312D01*
X31349678Y-57346741D02*
X31349678Y-57203884D01*
X31349678Y-57203884D02*
X31421107Y-57061027D01*
X31421107Y-57061027D02*
X31492535Y-56989599D01*
X31492535Y-56989599D02*
X31635392Y-56918170D01*
X31635392Y-56918170D02*
X31921107Y-56846741D01*
X31921107Y-56846741D02*
X32278250Y-56846741D01*
X32278250Y-56846741D02*
X32563964Y-56918170D01*
X32563964Y-56918170D02*
X32706821Y-56989599D01*
X32706821Y-56989599D02*
X32778250Y-57061027D01*
X32778250Y-57061027D02*
X32849678Y-57203884D01*
X32849678Y-57203884D02*
X32849678Y-57346741D01*
X32849678Y-57346741D02*
X32778250Y-57489599D01*
X32778250Y-57489599D02*
X32706821Y-57561027D01*
X32706821Y-57561027D02*
X32563964Y-57632456D01*
X32563964Y-57632456D02*
X32278250Y-57703884D01*
X32278250Y-57703884D02*
X31921107Y-57703884D01*
X31921107Y-57703884D02*
X31635392Y-57632456D01*
X31635392Y-57632456D02*
X31492535Y-57561027D01*
X31492535Y-57561027D02*
X31421107Y-57489599D01*
X31421107Y-57489599D02*
X31349678Y-57346741D01*
X31349678Y-56418170D02*
X32849678Y-55918170D01*
X32849678Y-55918170D02*
X31349678Y-55418170D01*
X37324678Y-60525312D02*
X37324678Y-60382455D01*
X37324678Y-60382455D02*
X37396107Y-60239598D01*
X37396107Y-60239598D02*
X37467535Y-60168170D01*
X37467535Y-60168170D02*
X37610392Y-60096741D01*
X37610392Y-60096741D02*
X37896107Y-60025312D01*
X37896107Y-60025312D02*
X38253250Y-60025312D01*
X38253250Y-60025312D02*
X38538964Y-60096741D01*
X38538964Y-60096741D02*
X38681821Y-60168170D01*
X38681821Y-60168170D02*
X38753250Y-60239598D01*
X38753250Y-60239598D02*
X38824678Y-60382455D01*
X38824678Y-60382455D02*
X38824678Y-60525312D01*
X38824678Y-60525312D02*
X38753250Y-60668170D01*
X38753250Y-60668170D02*
X38681821Y-60739598D01*
X38681821Y-60739598D02*
X38538964Y-60811027D01*
X38538964Y-60811027D02*
X38253250Y-60882455D01*
X38253250Y-60882455D02*
X37896107Y-60882455D01*
X37896107Y-60882455D02*
X37610392Y-60811027D01*
X37610392Y-60811027D02*
X37467535Y-60739598D01*
X37467535Y-60739598D02*
X37396107Y-60668170D01*
X37396107Y-60668170D02*
X37324678Y-60525312D01*
X38681821Y-59382456D02*
X38753250Y-59311027D01*
X38753250Y-59311027D02*
X38824678Y-59382456D01*
X38824678Y-59382456D02*
X38753250Y-59453884D01*
X38753250Y-59453884D02*
X38681821Y-59382456D01*
X38681821Y-59382456D02*
X38824678Y-59382456D01*
X38824678Y-57882455D02*
X38824678Y-58739598D01*
X38824678Y-58311027D02*
X37324678Y-58311027D01*
X37324678Y-58311027D02*
X37538964Y-58453884D01*
X37538964Y-58453884D02*
X37681821Y-58596741D01*
X37681821Y-58596741D02*
X37753250Y-58739598D01*
X37824678Y-56596742D02*
X38824678Y-56596742D01*
X37824678Y-57239599D02*
X38610392Y-57239599D01*
X38610392Y-57239599D02*
X38753250Y-57168170D01*
X38753250Y-57168170D02*
X38824678Y-57025313D01*
X38824678Y-57025313D02*
X38824678Y-56811027D01*
X38824678Y-56811027D02*
X38753250Y-56668170D01*
X38753250Y-56668170D02*
X38681821Y-56596742D01*
X38038964Y-55382456D02*
X38038964Y-55882456D01*
X38824678Y-55882456D02*
X37324678Y-55882456D01*
X37324678Y-55882456D02*
X37324678Y-55168170D01*
X8849678Y-25703883D02*
X8849678Y-26561026D01*
X8849678Y-26132455D02*
X7349678Y-26132455D01*
X7349678Y-26132455D02*
X7563964Y-26275312D01*
X7563964Y-26275312D02*
X7706821Y-26418169D01*
X7706821Y-26418169D02*
X7778250Y-26561026D01*
X7349678Y-24775312D02*
X7349678Y-24632455D01*
X7349678Y-24632455D02*
X7421107Y-24489598D01*
X7421107Y-24489598D02*
X7492535Y-24418170D01*
X7492535Y-24418170D02*
X7635392Y-24346741D01*
X7635392Y-24346741D02*
X7921107Y-24275312D01*
X7921107Y-24275312D02*
X8278250Y-24275312D01*
X8278250Y-24275312D02*
X8563964Y-24346741D01*
X8563964Y-24346741D02*
X8706821Y-24418170D01*
X8706821Y-24418170D02*
X8778250Y-24489598D01*
X8778250Y-24489598D02*
X8849678Y-24632455D01*
X8849678Y-24632455D02*
X8849678Y-24775312D01*
X8849678Y-24775312D02*
X8778250Y-24918170D01*
X8778250Y-24918170D02*
X8706821Y-24989598D01*
X8706821Y-24989598D02*
X8563964Y-25061027D01*
X8563964Y-25061027D02*
X8278250Y-25132455D01*
X8278250Y-25132455D02*
X7921107Y-25132455D01*
X7921107Y-25132455D02*
X7635392Y-25061027D01*
X7635392Y-25061027D02*
X7492535Y-24989598D01*
X7492535Y-24989598D02*
X7421107Y-24918170D01*
X7421107Y-24918170D02*
X7349678Y-24775312D01*
X7349678Y-23346741D02*
X7349678Y-23203884D01*
X7349678Y-23203884D02*
X7421107Y-23061027D01*
X7421107Y-23061027D02*
X7492535Y-22989599D01*
X7492535Y-22989599D02*
X7635392Y-22918170D01*
X7635392Y-22918170D02*
X7921107Y-22846741D01*
X7921107Y-22846741D02*
X8278250Y-22846741D01*
X8278250Y-22846741D02*
X8563964Y-22918170D01*
X8563964Y-22918170D02*
X8706821Y-22989599D01*
X8706821Y-22989599D02*
X8778250Y-23061027D01*
X8778250Y-23061027D02*
X8849678Y-23203884D01*
X8849678Y-23203884D02*
X8849678Y-23346741D01*
X8849678Y-23346741D02*
X8778250Y-23489599D01*
X8778250Y-23489599D02*
X8706821Y-23561027D01*
X8706821Y-23561027D02*
X8563964Y-23632456D01*
X8563964Y-23632456D02*
X8278250Y-23703884D01*
X8278250Y-23703884D02*
X7921107Y-23703884D01*
X7921107Y-23703884D02*
X7635392Y-23632456D01*
X7635392Y-23632456D02*
X7492535Y-23561027D01*
X7492535Y-23561027D02*
X7421107Y-23489599D01*
X7421107Y-23489599D02*
X7349678Y-23346741D01*
X7349678Y-22418170D02*
X8849678Y-21918170D01*
X8849678Y-21918170D02*
X7349678Y-21418170D01*
D11*
X67350000Y-11500500D02*
G75*
G02*
X62650000Y-11500500I-2350000J0D01*
G01*
X62650000Y-11500500D02*
G75*
G02*
X67350000Y-11500500I2350000J0D01*
G01*
D12*
X43350000Y-36500500D02*
G75*
G02*
X38650000Y-36500500I-2350000J0D01*
G01*
X38650000Y-36500500D02*
G75*
G02*
X43350000Y-36500500I2350000J0D01*
G01*
X7350000Y-70500500D02*
G75*
G02*
X2650000Y-70500500I-2350000J0D01*
G01*
X2650000Y-70500500D02*
G75*
G02*
X7350000Y-70500500I2350000J0D01*
G01*
D11*
X79350000Y-45500500D02*
G75*
G02*
X74650000Y-45500500I-2350000J0D01*
G01*
X74650000Y-45500500D02*
G75*
G02*
X79350000Y-45500500I2350000J0D01*
G01*
D12*
X79350000Y-36500500D02*
G75*
G02*
X74650000Y-36500500I-2350000J0D01*
G01*
X74650000Y-36500500D02*
G75*
G02*
X79350000Y-36500500I2350000J0D01*
G01*
D11*
X67350000Y-45500500D02*
G75*
G02*
X62650000Y-45500500I-2350000J0D01*
G01*
X62650000Y-45500500D02*
G75*
G02*
X67350000Y-45500500I2350000J0D01*
G01*
D12*
X91350000Y-70500500D02*
G75*
G02*
X86650000Y-70500500I-2350000J0D01*
G01*
X86650000Y-70500500D02*
G75*
G02*
X91350000Y-70500500I2350000J0D01*
G01*
X31350000Y-70500500D02*
G75*
G02*
X26650000Y-70500500I-2350000J0D01*
G01*
X26650000Y-70500500D02*
G75*
G02*
X31350000Y-70500500I2350000J0D01*
G01*
D11*
X91350000Y-45500500D02*
G75*
G02*
X86650000Y-45500500I-2350000J0D01*
G01*
X86650000Y-45500500D02*
G75*
G02*
X91350000Y-45500500I2350000J0D01*
G01*
X19350000Y-45500500D02*
G75*
G02*
X14650000Y-45500500I-2350000J0D01*
G01*
X14650000Y-45500500D02*
G75*
G02*
X19350000Y-45500500I2350000J0D01*
G01*
X31350000Y-11500500D02*
G75*
G02*
X26650000Y-11500500I-2350000J0D01*
G01*
X26650000Y-11500500D02*
G75*
G02*
X31350000Y-11500500I2350000J0D01*
G01*
X55350000Y-11500500D02*
G75*
G02*
X50650000Y-11500500I-2350000J0D01*
G01*
X50650000Y-11500500D02*
G75*
G02*
X55350000Y-11500500I2350000J0D01*
G01*
D12*
X79350000Y-70500500D02*
G75*
G02*
X74650000Y-70500500I-2350000J0D01*
G01*
X74650000Y-70500500D02*
G75*
G02*
X79350000Y-70500500I2350000J0D01*
G01*
X43350000Y-70500500D02*
G75*
G02*
X38650000Y-70500500I-2350000J0D01*
G01*
X38650000Y-70500500D02*
G75*
G02*
X43350000Y-70500500I2350000J0D01*
G01*
D11*
X7350000Y-11500500D02*
G75*
G02*
X2650000Y-11500500I-2350000J0D01*
G01*
X2650000Y-11500500D02*
G75*
G02*
X7350000Y-11500500I2350000J0D01*
G01*
D12*
X31350000Y-36500500D02*
G75*
G02*
X26650000Y-36500500I-2350000J0D01*
G01*
X26650000Y-36500500D02*
G75*
G02*
X31350000Y-36500500I2350000J0D01*
G01*
X19350000Y-70500500D02*
G75*
G02*
X14650000Y-70500500I-2350000J0D01*
G01*
X14650000Y-70500500D02*
G75*
G02*
X19350000Y-70500500I2350000J0D01*
G01*
D11*
X19350000Y-11500500D02*
G75*
G02*
X14650000Y-11500500I-2350000J0D01*
G01*
X14650000Y-11500500D02*
G75*
G02*
X19350000Y-11500500I2350000J0D01*
G01*
X43350000Y-11500500D02*
G75*
G02*
X38650000Y-11500500I-2350000J0D01*
G01*
X38650000Y-11500500D02*
G75*
G02*
X43350000Y-11500500I2350000J0D01*
G01*
X7350000Y-45500500D02*
G75*
G02*
X2650000Y-45500500I-2350000J0D01*
G01*
X2650000Y-45500500D02*
G75*
G02*
X7350000Y-45500500I2350000J0D01*
G01*
X31350000Y-45500500D02*
G75*
G02*
X26650000Y-45500500I-2350000J0D01*
G01*
X26650000Y-45500500D02*
G75*
G02*
X31350000Y-45500500I2350000J0D01*
G01*
X79350000Y-11500500D02*
G75*
G02*
X74650000Y-11500500I-2350000J0D01*
G01*
X74650000Y-11500500D02*
G75*
G02*
X79350000Y-11500500I2350000J0D01*
G01*
D12*
X55350000Y-36500500D02*
G75*
G02*
X50650000Y-36500500I-2350000J0D01*
G01*
X50650000Y-36500500D02*
G75*
G02*
X55350000Y-36500500I2350000J0D01*
G01*
X7350000Y-36500500D02*
G75*
G02*
X2650000Y-36500500I-2350000J0D01*
G01*
X2650000Y-36500500D02*
G75*
G02*
X7350000Y-36500500I2350000J0D01*
G01*
X19350000Y-36500500D02*
G75*
G02*
X14650000Y-36500500I-2350000J0D01*
G01*
X14650000Y-36500500D02*
G75*
G02*
X19350000Y-36500500I2350000J0D01*
G01*
D11*
X55350000Y-45500500D02*
G75*
G02*
X50650000Y-45500500I-2350000J0D01*
G01*
X50650000Y-45500500D02*
G75*
G02*
X55350000Y-45500500I2350000J0D01*
G01*
X43350000Y-45500500D02*
G75*
G02*
X38650000Y-45500500I-2350000J0D01*
G01*
X38650000Y-45500500D02*
G75*
G02*
X43350000Y-45500500I2350000J0D01*
G01*
D12*
X55350000Y-70500500D02*
G75*
G02*
X50650000Y-70500500I-2350000J0D01*
G01*
X50650000Y-70500500D02*
G75*
G02*
X55350000Y-70500500I2350000J0D01*
G01*
D11*
X91350000Y-11500500D02*
G75*
G02*
X86650000Y-11500500I-2350000J0D01*
G01*
X86650000Y-11500500D02*
G75*
G02*
X91350000Y-11500500I2350000J0D01*
G01*
D12*
X91350000Y-36500500D02*
G75*
G02*
X86650000Y-36500500I-2350000J0D01*
G01*
X86650000Y-36500500D02*
G75*
G02*
X91350000Y-36500500I2350000J0D01*
G01*
X67350000Y-36500500D02*
G75*
G02*
X62650000Y-36500500I-2350000J0D01*
G01*
X62650000Y-36500500D02*
G75*
G02*
X67350000Y-36500500I2350000J0D01*
G01*
X67350000Y-70500500D02*
G75*
G02*
X62650000Y-70500500I-2350000J0D01*
G01*
X62650000Y-70500500D02*
G75*
G02*
X67350000Y-70500500I2350000J0D01*
G01*
D13*
%TO.C,C1*%
X76090000Y-57289248D02*
X76090000Y-58711752D01*
X77910000Y-57289248D02*
X77910000Y-58711752D01*
X64090000Y-57289248D02*
X64090000Y-58711752D01*
X65910000Y-57289248D02*
X65910000Y-58711752D01*
X52090000Y-23289248D02*
X52090000Y-24711752D01*
X53910000Y-23289248D02*
X53910000Y-24711752D01*
X16090000Y-23289248D02*
X16090000Y-24711752D01*
X17910000Y-23289248D02*
X17910000Y-24711752D01*
X40090000Y-23289248D02*
X40090000Y-24711752D01*
X41910000Y-23289248D02*
X41910000Y-24711752D01*
X4090000Y-57289248D02*
X4090000Y-58711752D01*
X5910000Y-57289248D02*
X5910000Y-58711752D01*
X28090000Y-57289248D02*
X28090000Y-58711752D01*
X29910000Y-57289248D02*
X29910000Y-58711752D01*
X40090000Y-57289248D02*
X40090000Y-58711752D01*
X41910000Y-57289248D02*
X41910000Y-58711752D01*
X16090000Y-57289248D02*
X16090000Y-58711752D01*
X17910000Y-57289248D02*
X17910000Y-58711752D01*
X64090000Y-23289248D02*
X64090000Y-24711752D01*
X65910000Y-23289248D02*
X65910000Y-24711752D01*
X28090000Y-23289248D02*
X28090000Y-24711752D01*
X29910000Y-23289248D02*
X29910000Y-24711752D01*
X76090000Y-23289248D02*
X76090000Y-24711752D01*
X77910000Y-23289248D02*
X77910000Y-24711752D01*
X88090000Y-57289248D02*
X88090000Y-58711752D01*
X89910000Y-57289248D02*
X89910000Y-58711752D01*
X4090000Y-23289248D02*
X4090000Y-24711752D01*
X5910000Y-23289248D02*
X5910000Y-24711752D01*
X52090000Y-57289248D02*
X52090000Y-58711752D01*
X53910000Y-57289248D02*
X53910000Y-58711752D01*
X88090000Y-23289248D02*
X88090000Y-24711752D01*
X89910000Y-23289248D02*
X89910000Y-24711752D01*
%TD*%
%LPC*%
D14*
%TO.C,J2*%
X65000000Y-36500500D03*
%TD*%
D15*
%TO.C,C1*%
X77000000Y-56525500D03*
X77000000Y-59475500D03*
%TD*%
D14*
%TO.C,J1*%
X17000000Y-45500500D03*
%TD*%
D15*
%TO.C,C1*%
X65000000Y-56525500D03*
X65000000Y-59475500D03*
%TD*%
%TO.C,C1*%
X53000000Y-22525500D03*
X53000000Y-25475500D03*
%TD*%
%TO.C,C1*%
X17000000Y-22525500D03*
X17000000Y-25475500D03*
%TD*%
%TO.C,C1*%
X41000000Y-22525500D03*
X41000000Y-25475500D03*
%TD*%
D14*
%TO.C,J2*%
X53000000Y-70500500D03*
%TD*%
%TO.C,J1*%
X41000000Y-45500500D03*
%TD*%
%TO.C,J2*%
X41000000Y-70500500D03*
%TD*%
%TO.C,J2*%
X5000000Y-70500500D03*
%TD*%
%TO.C,J2*%
X5000000Y-36500500D03*
%TD*%
%TO.C,J2*%
X29000000Y-70500500D03*
%TD*%
%TO.C,J1*%
X65000000Y-45500500D03*
%TD*%
D15*
%TO.C,C1*%
X5000000Y-56525500D03*
X5000000Y-59475500D03*
%TD*%
D14*
%TO.C,J1*%
X53000000Y-11500500D03*
%TD*%
%TO.C,J2*%
X77000000Y-36500500D03*
%TD*%
%TO.C,J2*%
X65000000Y-70500500D03*
%TD*%
%TO.C,J2*%
X89000000Y-70500500D03*
%TD*%
%TO.C,J1*%
X77000000Y-11500500D03*
%TD*%
D15*
%TO.C,C1*%
X29000000Y-56525500D03*
X29000000Y-59475500D03*
%TD*%
D14*
%TO.C,J2*%
X17000000Y-70500500D03*
%TD*%
%TO.C,J1*%
X5000000Y-11500500D03*
%TD*%
%TO.C,J1*%
X41000000Y-11500500D03*
%TD*%
%TO.C,J1*%
X29000000Y-45500500D03*
%TD*%
D15*
%TO.C,C1*%
X41000000Y-56525500D03*
X41000000Y-59475500D03*
%TD*%
D14*
%TO.C,J1*%
X77000000Y-45500500D03*
%TD*%
%TO.C,J1*%
X29000000Y-11500500D03*
%TD*%
%TO.C,J2*%
X77000000Y-70500500D03*
%TD*%
%TO.C,J1*%
X65000000Y-11500500D03*
%TD*%
%TO.C,J2*%
X41000000Y-36500500D03*
%TD*%
%TO.C,J2*%
X29000000Y-36500500D03*
%TD*%
D15*
%TO.C,C1*%
X17000000Y-56525500D03*
X17000000Y-59475500D03*
%TD*%
%TO.C,C1*%
X65000000Y-22525500D03*
X65000000Y-25475500D03*
%TD*%
%TO.C,C1*%
X29000000Y-22525500D03*
X29000000Y-25475500D03*
%TD*%
%TO.C,C1*%
X77000000Y-22525500D03*
X77000000Y-25475500D03*
%TD*%
D14*
%TO.C,J1*%
X17000000Y-11500500D03*
%TD*%
%TO.C,J2*%
X53000000Y-36500500D03*
%TD*%
D15*
%TO.C,C1*%
X89000000Y-56525500D03*
X89000000Y-59475500D03*
%TD*%
D14*
%TO.C,J1*%
X53000000Y-45500500D03*
%TD*%
%TO.C,J1*%
X89000000Y-11500500D03*
%TD*%
%TO.C,J2*%
X17000000Y-36500500D03*
%TD*%
%TO.C,J2*%
X89000000Y-36500500D03*
%TD*%
D15*
%TO.C,C1*%
X5000000Y-22525500D03*
X5000000Y-25475500D03*
%TD*%
%TO.C,C1*%
X53000000Y-56525500D03*
X53000000Y-59475500D03*
%TD*%
%TO.C,C1*%
X89000000Y-22525500D03*
X89000000Y-25475500D03*
%TD*%
D14*
%TO.C,J1*%
X5000000Y-45500500D03*
%TD*%
%TO.C,J1*%
X89000000Y-45500500D03*
%TD*%
%LPD*%
M02*
