%TF.GenerationSoftware,KiCad,Pcbnew,8.0.2*%
%TF.CreationDate,2024-06-26T18:14:25+07:00*%
%TF.ProjectId,capacitor_100nF_100V_Panel,63617061-6369-4746-9f72-5f3130306e46,rev?*%
%TF.SameCoordinates,Original*%
%TF.FileFunction,Copper,L2,Bot*%
%TF.FilePolarity,Positive*%
%FSLAX46Y46*%
G04 Gerber Fmt 4.6, Leading zero omitted, Abs format (unit mm)*
G04 Created by KiCad (PCBNEW 8.0.2) date 2024-06-26 18:14:25*
%MOMM*%
%LPD*%
G01*
G04 APERTURE LIST*
%ADD10C,0.400000*%
%TA.AperFunction,NonConductor*%
%ADD11C,0.400000*%
%TD*%
%TA.AperFunction,ComponentPad*%
%ADD12C,4.000000*%
%TD*%
G04 APERTURE END LIST*
D10*
D11*
X100453633Y-40904938D02*
X101120299Y-42904938D01*
X101120299Y-42904938D02*
X101786966Y-40904938D01*
X102453633Y-42143033D02*
X103977443Y-42143033D01*
X106072680Y-42714461D02*
X105977442Y-42809700D01*
X105977442Y-42809700D02*
X105691728Y-42904938D01*
X105691728Y-42904938D02*
X105501252Y-42904938D01*
X105501252Y-42904938D02*
X105215537Y-42809700D01*
X105215537Y-42809700D02*
X105025061Y-42619223D01*
X105025061Y-42619223D02*
X104929823Y-42428747D01*
X104929823Y-42428747D02*
X104834585Y-42047795D01*
X104834585Y-42047795D02*
X104834585Y-41762080D01*
X104834585Y-41762080D02*
X104929823Y-41381128D01*
X104929823Y-41381128D02*
X105025061Y-41190652D01*
X105025061Y-41190652D02*
X105215537Y-41000176D01*
X105215537Y-41000176D02*
X105501252Y-40904938D01*
X105501252Y-40904938D02*
X105691728Y-40904938D01*
X105691728Y-40904938D02*
X105977442Y-41000176D01*
X105977442Y-41000176D02*
X106072680Y-41095414D01*
X106929823Y-40904938D02*
X106929823Y-42523985D01*
X106929823Y-42523985D02*
X107025061Y-42714461D01*
X107025061Y-42714461D02*
X107120299Y-42809700D01*
X107120299Y-42809700D02*
X107310775Y-42904938D01*
X107310775Y-42904938D02*
X107691728Y-42904938D01*
X107691728Y-42904938D02*
X107882204Y-42809700D01*
X107882204Y-42809700D02*
X107977442Y-42714461D01*
X107977442Y-42714461D02*
X108072680Y-42523985D01*
X108072680Y-42523985D02*
X108072680Y-40904938D01*
X108739347Y-40904938D02*
X109882204Y-40904938D01*
X109310775Y-42904938D02*
X109310775Y-40904938D01*
D10*
D11*
X46904438Y6453634D02*
X48904438Y7120300D01*
X48904438Y7120300D02*
X46904438Y7786967D01*
X48142533Y8453634D02*
X48142533Y9977443D01*
X48713961Y12072681D02*
X48809200Y11977443D01*
X48809200Y11977443D02*
X48904438Y11691729D01*
X48904438Y11691729D02*
X48904438Y11501253D01*
X48904438Y11501253D02*
X48809200Y11215538D01*
X48809200Y11215538D02*
X48618723Y11025062D01*
X48618723Y11025062D02*
X48428247Y10929824D01*
X48428247Y10929824D02*
X48047295Y10834586D01*
X48047295Y10834586D02*
X47761580Y10834586D01*
X47761580Y10834586D02*
X47380628Y10929824D01*
X47380628Y10929824D02*
X47190152Y11025062D01*
X47190152Y11025062D02*
X46999676Y11215538D01*
X46999676Y11215538D02*
X46904438Y11501253D01*
X46904438Y11501253D02*
X46904438Y11691729D01*
X46904438Y11691729D02*
X46999676Y11977443D01*
X46999676Y11977443D02*
X47094914Y12072681D01*
X46904438Y12929824D02*
X48523485Y12929824D01*
X48523485Y12929824D02*
X48713961Y13025062D01*
X48713961Y13025062D02*
X48809200Y13120300D01*
X48809200Y13120300D02*
X48904438Y13310776D01*
X48904438Y13310776D02*
X48904438Y13691729D01*
X48904438Y13691729D02*
X48809200Y13882205D01*
X48809200Y13882205D02*
X48713961Y13977443D01*
X48713961Y13977443D02*
X48523485Y14072681D01*
X48523485Y14072681D02*
X46904438Y14072681D01*
X46904438Y14739348D02*
X46904438Y15882205D01*
X48904438Y15310776D02*
X46904438Y15310776D01*
D10*
D11*
X100453633Y-38904938D02*
X101120299Y-40904938D01*
X101120299Y-40904938D02*
X101786966Y-38904938D01*
X102453633Y-40143033D02*
X103977443Y-40143033D01*
X106072680Y-40714461D02*
X105977442Y-40809700D01*
X105977442Y-40809700D02*
X105691728Y-40904938D01*
X105691728Y-40904938D02*
X105501252Y-40904938D01*
X105501252Y-40904938D02*
X105215537Y-40809700D01*
X105215537Y-40809700D02*
X105025061Y-40619223D01*
X105025061Y-40619223D02*
X104929823Y-40428747D01*
X104929823Y-40428747D02*
X104834585Y-40047795D01*
X104834585Y-40047795D02*
X104834585Y-39762080D01*
X104834585Y-39762080D02*
X104929823Y-39381128D01*
X104929823Y-39381128D02*
X105025061Y-39190652D01*
X105025061Y-39190652D02*
X105215537Y-39000176D01*
X105215537Y-39000176D02*
X105501252Y-38904938D01*
X105501252Y-38904938D02*
X105691728Y-38904938D01*
X105691728Y-38904938D02*
X105977442Y-39000176D01*
X105977442Y-39000176D02*
X106072680Y-39095414D01*
X106929823Y-38904938D02*
X106929823Y-40523985D01*
X106929823Y-40523985D02*
X107025061Y-40714461D01*
X107025061Y-40714461D02*
X107120299Y-40809700D01*
X107120299Y-40809700D02*
X107310775Y-40904938D01*
X107310775Y-40904938D02*
X107691728Y-40904938D01*
X107691728Y-40904938D02*
X107882204Y-40809700D01*
X107882204Y-40809700D02*
X107977442Y-40714461D01*
X107977442Y-40714461D02*
X108072680Y-40523985D01*
X108072680Y-40523985D02*
X108072680Y-38904938D01*
X108739347Y-38904938D02*
X109882204Y-38904938D01*
X109310775Y-40904938D02*
X109310775Y-38904938D01*
D10*
D11*
X80904438Y6453634D02*
X82904438Y7120300D01*
X82904438Y7120300D02*
X80904438Y7786967D01*
X82142533Y8453634D02*
X82142533Y9977443D01*
X82713961Y12072681D02*
X82809200Y11977443D01*
X82809200Y11977443D02*
X82904438Y11691729D01*
X82904438Y11691729D02*
X82904438Y11501253D01*
X82904438Y11501253D02*
X82809200Y11215538D01*
X82809200Y11215538D02*
X82618723Y11025062D01*
X82618723Y11025062D02*
X82428247Y10929824D01*
X82428247Y10929824D02*
X82047295Y10834586D01*
X82047295Y10834586D02*
X81761580Y10834586D01*
X81761580Y10834586D02*
X81380628Y10929824D01*
X81380628Y10929824D02*
X81190152Y11025062D01*
X81190152Y11025062D02*
X80999676Y11215538D01*
X80999676Y11215538D02*
X80904438Y11501253D01*
X80904438Y11501253D02*
X80904438Y11691729D01*
X80904438Y11691729D02*
X80999676Y11977443D01*
X80999676Y11977443D02*
X81094914Y12072681D01*
X80904438Y12929824D02*
X82523485Y12929824D01*
X82523485Y12929824D02*
X82713961Y13025062D01*
X82713961Y13025062D02*
X82809200Y13120300D01*
X82809200Y13120300D02*
X82904438Y13310776D01*
X82904438Y13310776D02*
X82904438Y13691729D01*
X82904438Y13691729D02*
X82809200Y13882205D01*
X82809200Y13882205D02*
X82713961Y13977443D01*
X82713961Y13977443D02*
X82523485Y14072681D01*
X82523485Y14072681D02*
X80904438Y14072681D01*
X80904438Y14739348D02*
X80904438Y15882205D01*
X82904438Y15310776D02*
X80904438Y15310776D01*
D10*
D11*
X58904438Y6453634D02*
X60904438Y7120300D01*
X60904438Y7120300D02*
X58904438Y7786967D01*
X60142533Y8453634D02*
X60142533Y9977443D01*
X60713961Y12072681D02*
X60809200Y11977443D01*
X60809200Y11977443D02*
X60904438Y11691729D01*
X60904438Y11691729D02*
X60904438Y11501253D01*
X60904438Y11501253D02*
X60809200Y11215538D01*
X60809200Y11215538D02*
X60618723Y11025062D01*
X60618723Y11025062D02*
X60428247Y10929824D01*
X60428247Y10929824D02*
X60047295Y10834586D01*
X60047295Y10834586D02*
X59761580Y10834586D01*
X59761580Y10834586D02*
X59380628Y10929824D01*
X59380628Y10929824D02*
X59190152Y11025062D01*
X59190152Y11025062D02*
X58999676Y11215538D01*
X58999676Y11215538D02*
X58904438Y11501253D01*
X58904438Y11501253D02*
X58904438Y11691729D01*
X58904438Y11691729D02*
X58999676Y11977443D01*
X58999676Y11977443D02*
X59094914Y12072681D01*
X58904438Y12929824D02*
X60523485Y12929824D01*
X60523485Y12929824D02*
X60713961Y13025062D01*
X60713961Y13025062D02*
X60809200Y13120300D01*
X60809200Y13120300D02*
X60904438Y13310776D01*
X60904438Y13310776D02*
X60904438Y13691729D01*
X60904438Y13691729D02*
X60809200Y13882205D01*
X60809200Y13882205D02*
X60713961Y13977443D01*
X60713961Y13977443D02*
X60523485Y14072681D01*
X60523485Y14072681D02*
X58904438Y14072681D01*
X58904438Y14739348D02*
X58904438Y15882205D01*
X60904438Y15310776D02*
X58904438Y15310776D01*
D10*
D11*
X100453633Y-72904938D02*
X101120299Y-74904938D01*
X101120299Y-74904938D02*
X101786966Y-72904938D01*
X102453633Y-74143033D02*
X103977443Y-74143033D01*
X106072680Y-74714461D02*
X105977442Y-74809700D01*
X105977442Y-74809700D02*
X105691728Y-74904938D01*
X105691728Y-74904938D02*
X105501252Y-74904938D01*
X105501252Y-74904938D02*
X105215537Y-74809700D01*
X105215537Y-74809700D02*
X105025061Y-74619223D01*
X105025061Y-74619223D02*
X104929823Y-74428747D01*
X104929823Y-74428747D02*
X104834585Y-74047795D01*
X104834585Y-74047795D02*
X104834585Y-73762080D01*
X104834585Y-73762080D02*
X104929823Y-73381128D01*
X104929823Y-73381128D02*
X105025061Y-73190652D01*
X105025061Y-73190652D02*
X105215537Y-73000176D01*
X105215537Y-73000176D02*
X105501252Y-72904938D01*
X105501252Y-72904938D02*
X105691728Y-72904938D01*
X105691728Y-72904938D02*
X105977442Y-73000176D01*
X105977442Y-73000176D02*
X106072680Y-73095414D01*
X106929823Y-72904938D02*
X106929823Y-74523985D01*
X106929823Y-74523985D02*
X107025061Y-74714461D01*
X107025061Y-74714461D02*
X107120299Y-74809700D01*
X107120299Y-74809700D02*
X107310775Y-74904938D01*
X107310775Y-74904938D02*
X107691728Y-74904938D01*
X107691728Y-74904938D02*
X107882204Y-74809700D01*
X107882204Y-74809700D02*
X107977442Y-74714461D01*
X107977442Y-74714461D02*
X108072680Y-74523985D01*
X108072680Y-74523985D02*
X108072680Y-72904938D01*
X108739347Y-72904938D02*
X109882204Y-72904938D01*
X109310775Y-74904938D02*
X109310775Y-72904938D01*
D10*
D11*
X68904438Y6453634D02*
X70904438Y7120300D01*
X70904438Y7120300D02*
X68904438Y7786967D01*
X70142533Y8453634D02*
X70142533Y9977443D01*
X70713961Y12072681D02*
X70809200Y11977443D01*
X70809200Y11977443D02*
X70904438Y11691729D01*
X70904438Y11691729D02*
X70904438Y11501253D01*
X70904438Y11501253D02*
X70809200Y11215538D01*
X70809200Y11215538D02*
X70618723Y11025062D01*
X70618723Y11025062D02*
X70428247Y10929824D01*
X70428247Y10929824D02*
X70047295Y10834586D01*
X70047295Y10834586D02*
X69761580Y10834586D01*
X69761580Y10834586D02*
X69380628Y10929824D01*
X69380628Y10929824D02*
X69190152Y11025062D01*
X69190152Y11025062D02*
X68999676Y11215538D01*
X68999676Y11215538D02*
X68904438Y11501253D01*
X68904438Y11501253D02*
X68904438Y11691729D01*
X68904438Y11691729D02*
X68999676Y11977443D01*
X68999676Y11977443D02*
X69094914Y12072681D01*
X68904438Y12929824D02*
X70523485Y12929824D01*
X70523485Y12929824D02*
X70713961Y13025062D01*
X70713961Y13025062D02*
X70809200Y13120300D01*
X70809200Y13120300D02*
X70904438Y13310776D01*
X70904438Y13310776D02*
X70904438Y13691729D01*
X70904438Y13691729D02*
X70809200Y13882205D01*
X70809200Y13882205D02*
X70713961Y13977443D01*
X70713961Y13977443D02*
X70523485Y14072681D01*
X70523485Y14072681D02*
X68904438Y14072681D01*
X68904438Y14739348D02*
X68904438Y15882205D01*
X70904438Y15310776D02*
X68904438Y15310776D01*
D10*
D11*
X20904438Y6453634D02*
X22904438Y7120300D01*
X22904438Y7120300D02*
X20904438Y7786967D01*
X22142533Y8453634D02*
X22142533Y9977443D01*
X22713961Y12072681D02*
X22809200Y11977443D01*
X22809200Y11977443D02*
X22904438Y11691729D01*
X22904438Y11691729D02*
X22904438Y11501253D01*
X22904438Y11501253D02*
X22809200Y11215538D01*
X22809200Y11215538D02*
X22618723Y11025062D01*
X22618723Y11025062D02*
X22428247Y10929824D01*
X22428247Y10929824D02*
X22047295Y10834586D01*
X22047295Y10834586D02*
X21761580Y10834586D01*
X21761580Y10834586D02*
X21380628Y10929824D01*
X21380628Y10929824D02*
X21190152Y11025062D01*
X21190152Y11025062D02*
X20999676Y11215538D01*
X20999676Y11215538D02*
X20904438Y11501253D01*
X20904438Y11501253D02*
X20904438Y11691729D01*
X20904438Y11691729D02*
X20999676Y11977443D01*
X20999676Y11977443D02*
X21094914Y12072681D01*
X20904438Y12929824D02*
X22523485Y12929824D01*
X22523485Y12929824D02*
X22713961Y13025062D01*
X22713961Y13025062D02*
X22809200Y13120300D01*
X22809200Y13120300D02*
X22904438Y13310776D01*
X22904438Y13310776D02*
X22904438Y13691729D01*
X22904438Y13691729D02*
X22809200Y13882205D01*
X22809200Y13882205D02*
X22713961Y13977443D01*
X22713961Y13977443D02*
X22523485Y14072681D01*
X22523485Y14072681D02*
X20904438Y14072681D01*
X20904438Y14739348D02*
X20904438Y15882205D01*
X22904438Y15310776D02*
X20904438Y15310776D01*
D10*
D11*
X8904438Y6453634D02*
X10904438Y7120300D01*
X10904438Y7120300D02*
X8904438Y7786967D01*
X10142533Y8453634D02*
X10142533Y9977443D01*
X10713961Y12072681D02*
X10809200Y11977443D01*
X10809200Y11977443D02*
X10904438Y11691729D01*
X10904438Y11691729D02*
X10904438Y11501253D01*
X10904438Y11501253D02*
X10809200Y11215538D01*
X10809200Y11215538D02*
X10618723Y11025062D01*
X10618723Y11025062D02*
X10428247Y10929824D01*
X10428247Y10929824D02*
X10047295Y10834586D01*
X10047295Y10834586D02*
X9761580Y10834586D01*
X9761580Y10834586D02*
X9380628Y10929824D01*
X9380628Y10929824D02*
X9190152Y11025062D01*
X9190152Y11025062D02*
X8999676Y11215538D01*
X8999676Y11215538D02*
X8904438Y11501253D01*
X8904438Y11501253D02*
X8904438Y11691729D01*
X8904438Y11691729D02*
X8999676Y11977443D01*
X8999676Y11977443D02*
X9094914Y12072681D01*
X8904438Y12929824D02*
X10523485Y12929824D01*
X10523485Y12929824D02*
X10713961Y13025062D01*
X10713961Y13025062D02*
X10809200Y13120300D01*
X10809200Y13120300D02*
X10904438Y13310776D01*
X10904438Y13310776D02*
X10904438Y13691729D01*
X10904438Y13691729D02*
X10809200Y13882205D01*
X10809200Y13882205D02*
X10713961Y13977443D01*
X10713961Y13977443D02*
X10523485Y14072681D01*
X10523485Y14072681D02*
X8904438Y14072681D01*
X8904438Y14739348D02*
X8904438Y15882205D01*
X10904438Y15310776D02*
X8904438Y15310776D01*
D10*
D11*
X70904438Y6453634D02*
X72904438Y7120300D01*
X72904438Y7120300D02*
X70904438Y7786967D01*
X72142533Y8453634D02*
X72142533Y9977443D01*
X72713961Y12072681D02*
X72809200Y11977443D01*
X72809200Y11977443D02*
X72904438Y11691729D01*
X72904438Y11691729D02*
X72904438Y11501253D01*
X72904438Y11501253D02*
X72809200Y11215538D01*
X72809200Y11215538D02*
X72618723Y11025062D01*
X72618723Y11025062D02*
X72428247Y10929824D01*
X72428247Y10929824D02*
X72047295Y10834586D01*
X72047295Y10834586D02*
X71761580Y10834586D01*
X71761580Y10834586D02*
X71380628Y10929824D01*
X71380628Y10929824D02*
X71190152Y11025062D01*
X71190152Y11025062D02*
X70999676Y11215538D01*
X70999676Y11215538D02*
X70904438Y11501253D01*
X70904438Y11501253D02*
X70904438Y11691729D01*
X70904438Y11691729D02*
X70999676Y11977443D01*
X70999676Y11977443D02*
X71094914Y12072681D01*
X70904438Y12929824D02*
X72523485Y12929824D01*
X72523485Y12929824D02*
X72713961Y13025062D01*
X72713961Y13025062D02*
X72809200Y13120300D01*
X72809200Y13120300D02*
X72904438Y13310776D01*
X72904438Y13310776D02*
X72904438Y13691729D01*
X72904438Y13691729D02*
X72809200Y13882205D01*
X72809200Y13882205D02*
X72713961Y13977443D01*
X72713961Y13977443D02*
X72523485Y14072681D01*
X72523485Y14072681D02*
X70904438Y14072681D01*
X70904438Y14739348D02*
X70904438Y15882205D01*
X72904438Y15310776D02*
X70904438Y15310776D01*
D10*
D11*
X44904438Y6453634D02*
X46904438Y7120300D01*
X46904438Y7120300D02*
X44904438Y7786967D01*
X46142533Y8453634D02*
X46142533Y9977443D01*
X46713961Y12072681D02*
X46809200Y11977443D01*
X46809200Y11977443D02*
X46904438Y11691729D01*
X46904438Y11691729D02*
X46904438Y11501253D01*
X46904438Y11501253D02*
X46809200Y11215538D01*
X46809200Y11215538D02*
X46618723Y11025062D01*
X46618723Y11025062D02*
X46428247Y10929824D01*
X46428247Y10929824D02*
X46047295Y10834586D01*
X46047295Y10834586D02*
X45761580Y10834586D01*
X45761580Y10834586D02*
X45380628Y10929824D01*
X45380628Y10929824D02*
X45190152Y11025062D01*
X45190152Y11025062D02*
X44999676Y11215538D01*
X44999676Y11215538D02*
X44904438Y11501253D01*
X44904438Y11501253D02*
X44904438Y11691729D01*
X44904438Y11691729D02*
X44999676Y11977443D01*
X44999676Y11977443D02*
X45094914Y12072681D01*
X44904438Y12929824D02*
X46523485Y12929824D01*
X46523485Y12929824D02*
X46713961Y13025062D01*
X46713961Y13025062D02*
X46809200Y13120300D01*
X46809200Y13120300D02*
X46904438Y13310776D01*
X46904438Y13310776D02*
X46904438Y13691729D01*
X46904438Y13691729D02*
X46809200Y13882205D01*
X46809200Y13882205D02*
X46713961Y13977443D01*
X46713961Y13977443D02*
X46523485Y14072681D01*
X46523485Y14072681D02*
X44904438Y14072681D01*
X44904438Y14739348D02*
X44904438Y15882205D01*
X46904438Y15310776D02*
X44904438Y15310776D01*
D10*
D11*
X22904438Y6453634D02*
X24904438Y7120300D01*
X24904438Y7120300D02*
X22904438Y7786967D01*
X24142533Y8453634D02*
X24142533Y9977443D01*
X24713961Y12072681D02*
X24809200Y11977443D01*
X24809200Y11977443D02*
X24904438Y11691729D01*
X24904438Y11691729D02*
X24904438Y11501253D01*
X24904438Y11501253D02*
X24809200Y11215538D01*
X24809200Y11215538D02*
X24618723Y11025062D01*
X24618723Y11025062D02*
X24428247Y10929824D01*
X24428247Y10929824D02*
X24047295Y10834586D01*
X24047295Y10834586D02*
X23761580Y10834586D01*
X23761580Y10834586D02*
X23380628Y10929824D01*
X23380628Y10929824D02*
X23190152Y11025062D01*
X23190152Y11025062D02*
X22999676Y11215538D01*
X22999676Y11215538D02*
X22904438Y11501253D01*
X22904438Y11501253D02*
X22904438Y11691729D01*
X22904438Y11691729D02*
X22999676Y11977443D01*
X22999676Y11977443D02*
X23094914Y12072681D01*
X22904438Y12929824D02*
X24523485Y12929824D01*
X24523485Y12929824D02*
X24713961Y13025062D01*
X24713961Y13025062D02*
X24809200Y13120300D01*
X24809200Y13120300D02*
X24904438Y13310776D01*
X24904438Y13310776D02*
X24904438Y13691729D01*
X24904438Y13691729D02*
X24809200Y13882205D01*
X24809200Y13882205D02*
X24713961Y13977443D01*
X24713961Y13977443D02*
X24523485Y14072681D01*
X24523485Y14072681D02*
X22904438Y14072681D01*
X22904438Y14739348D02*
X22904438Y15882205D01*
X24904438Y15310776D02*
X22904438Y15310776D01*
D10*
D11*
X10904438Y6453634D02*
X12904438Y7120300D01*
X12904438Y7120300D02*
X10904438Y7786967D01*
X12142533Y8453634D02*
X12142533Y9977443D01*
X12713961Y12072681D02*
X12809200Y11977443D01*
X12809200Y11977443D02*
X12904438Y11691729D01*
X12904438Y11691729D02*
X12904438Y11501253D01*
X12904438Y11501253D02*
X12809200Y11215538D01*
X12809200Y11215538D02*
X12618723Y11025062D01*
X12618723Y11025062D02*
X12428247Y10929824D01*
X12428247Y10929824D02*
X12047295Y10834586D01*
X12047295Y10834586D02*
X11761580Y10834586D01*
X11761580Y10834586D02*
X11380628Y10929824D01*
X11380628Y10929824D02*
X11190152Y11025062D01*
X11190152Y11025062D02*
X10999676Y11215538D01*
X10999676Y11215538D02*
X10904438Y11501253D01*
X10904438Y11501253D02*
X10904438Y11691729D01*
X10904438Y11691729D02*
X10999676Y11977443D01*
X10999676Y11977443D02*
X11094914Y12072681D01*
X10904438Y12929824D02*
X12523485Y12929824D01*
X12523485Y12929824D02*
X12713961Y13025062D01*
X12713961Y13025062D02*
X12809200Y13120300D01*
X12809200Y13120300D02*
X12904438Y13310776D01*
X12904438Y13310776D02*
X12904438Y13691729D01*
X12904438Y13691729D02*
X12809200Y13882205D01*
X12809200Y13882205D02*
X12713961Y13977443D01*
X12713961Y13977443D02*
X12523485Y14072681D01*
X12523485Y14072681D02*
X10904438Y14072681D01*
X10904438Y14739348D02*
X10904438Y15882205D01*
X12904438Y15310776D02*
X10904438Y15310776D01*
D10*
D11*
X56904438Y6453634D02*
X58904438Y7120300D01*
X58904438Y7120300D02*
X56904438Y7786967D01*
X58142533Y8453634D02*
X58142533Y9977443D01*
X58713961Y12072681D02*
X58809200Y11977443D01*
X58809200Y11977443D02*
X58904438Y11691729D01*
X58904438Y11691729D02*
X58904438Y11501253D01*
X58904438Y11501253D02*
X58809200Y11215538D01*
X58809200Y11215538D02*
X58618723Y11025062D01*
X58618723Y11025062D02*
X58428247Y10929824D01*
X58428247Y10929824D02*
X58047295Y10834586D01*
X58047295Y10834586D02*
X57761580Y10834586D01*
X57761580Y10834586D02*
X57380628Y10929824D01*
X57380628Y10929824D02*
X57190152Y11025062D01*
X57190152Y11025062D02*
X56999676Y11215538D01*
X56999676Y11215538D02*
X56904438Y11501253D01*
X56904438Y11501253D02*
X56904438Y11691729D01*
X56904438Y11691729D02*
X56999676Y11977443D01*
X56999676Y11977443D02*
X57094914Y12072681D01*
X56904438Y12929824D02*
X58523485Y12929824D01*
X58523485Y12929824D02*
X58713961Y13025062D01*
X58713961Y13025062D02*
X58809200Y13120300D01*
X58809200Y13120300D02*
X58904438Y13310776D01*
X58904438Y13310776D02*
X58904438Y13691729D01*
X58904438Y13691729D02*
X58809200Y13882205D01*
X58809200Y13882205D02*
X58713961Y13977443D01*
X58713961Y13977443D02*
X58523485Y14072681D01*
X58523485Y14072681D02*
X56904438Y14072681D01*
X56904438Y14739348D02*
X56904438Y15882205D01*
X58904438Y15310776D02*
X56904438Y15310776D01*
D10*
D11*
X34904438Y6453634D02*
X36904438Y7120300D01*
X36904438Y7120300D02*
X34904438Y7786967D01*
X36142533Y8453634D02*
X36142533Y9977443D01*
X36713961Y12072681D02*
X36809200Y11977443D01*
X36809200Y11977443D02*
X36904438Y11691729D01*
X36904438Y11691729D02*
X36904438Y11501253D01*
X36904438Y11501253D02*
X36809200Y11215538D01*
X36809200Y11215538D02*
X36618723Y11025062D01*
X36618723Y11025062D02*
X36428247Y10929824D01*
X36428247Y10929824D02*
X36047295Y10834586D01*
X36047295Y10834586D02*
X35761580Y10834586D01*
X35761580Y10834586D02*
X35380628Y10929824D01*
X35380628Y10929824D02*
X35190152Y11025062D01*
X35190152Y11025062D02*
X34999676Y11215538D01*
X34999676Y11215538D02*
X34904438Y11501253D01*
X34904438Y11501253D02*
X34904438Y11691729D01*
X34904438Y11691729D02*
X34999676Y11977443D01*
X34999676Y11977443D02*
X35094914Y12072681D01*
X34904438Y12929824D02*
X36523485Y12929824D01*
X36523485Y12929824D02*
X36713961Y13025062D01*
X36713961Y13025062D02*
X36809200Y13120300D01*
X36809200Y13120300D02*
X36904438Y13310776D01*
X36904438Y13310776D02*
X36904438Y13691729D01*
X36904438Y13691729D02*
X36809200Y13882205D01*
X36809200Y13882205D02*
X36713961Y13977443D01*
X36713961Y13977443D02*
X36523485Y14072681D01*
X36523485Y14072681D02*
X34904438Y14072681D01*
X34904438Y14739348D02*
X34904438Y15882205D01*
X36904438Y15310776D02*
X34904438Y15310776D01*
D10*
D11*
X82904438Y6453634D02*
X84904438Y7120300D01*
X84904438Y7120300D02*
X82904438Y7786967D01*
X84142533Y8453634D02*
X84142533Y9977443D01*
X84713961Y12072681D02*
X84809200Y11977443D01*
X84809200Y11977443D02*
X84904438Y11691729D01*
X84904438Y11691729D02*
X84904438Y11501253D01*
X84904438Y11501253D02*
X84809200Y11215538D01*
X84809200Y11215538D02*
X84618723Y11025062D01*
X84618723Y11025062D02*
X84428247Y10929824D01*
X84428247Y10929824D02*
X84047295Y10834586D01*
X84047295Y10834586D02*
X83761580Y10834586D01*
X83761580Y10834586D02*
X83380628Y10929824D01*
X83380628Y10929824D02*
X83190152Y11025062D01*
X83190152Y11025062D02*
X82999676Y11215538D01*
X82999676Y11215538D02*
X82904438Y11501253D01*
X82904438Y11501253D02*
X82904438Y11691729D01*
X82904438Y11691729D02*
X82999676Y11977443D01*
X82999676Y11977443D02*
X83094914Y12072681D01*
X82904438Y12929824D02*
X84523485Y12929824D01*
X84523485Y12929824D02*
X84713961Y13025062D01*
X84713961Y13025062D02*
X84809200Y13120300D01*
X84809200Y13120300D02*
X84904438Y13310776D01*
X84904438Y13310776D02*
X84904438Y13691729D01*
X84904438Y13691729D02*
X84809200Y13882205D01*
X84809200Y13882205D02*
X84713961Y13977443D01*
X84713961Y13977443D02*
X84523485Y14072681D01*
X84523485Y14072681D02*
X82904438Y14072681D01*
X82904438Y14739348D02*
X82904438Y15882205D01*
X84904438Y15310776D02*
X82904438Y15310776D01*
D10*
D11*
X32904438Y6453634D02*
X34904438Y7120300D01*
X34904438Y7120300D02*
X32904438Y7786967D01*
X34142533Y8453634D02*
X34142533Y9977443D01*
X34713961Y12072681D02*
X34809200Y11977443D01*
X34809200Y11977443D02*
X34904438Y11691729D01*
X34904438Y11691729D02*
X34904438Y11501253D01*
X34904438Y11501253D02*
X34809200Y11215538D01*
X34809200Y11215538D02*
X34618723Y11025062D01*
X34618723Y11025062D02*
X34428247Y10929824D01*
X34428247Y10929824D02*
X34047295Y10834586D01*
X34047295Y10834586D02*
X33761580Y10834586D01*
X33761580Y10834586D02*
X33380628Y10929824D01*
X33380628Y10929824D02*
X33190152Y11025062D01*
X33190152Y11025062D02*
X32999676Y11215538D01*
X32999676Y11215538D02*
X32904438Y11501253D01*
X32904438Y11501253D02*
X32904438Y11691729D01*
X32904438Y11691729D02*
X32999676Y11977443D01*
X32999676Y11977443D02*
X33094914Y12072681D01*
X32904438Y12929824D02*
X34523485Y12929824D01*
X34523485Y12929824D02*
X34713961Y13025062D01*
X34713961Y13025062D02*
X34809200Y13120300D01*
X34809200Y13120300D02*
X34904438Y13310776D01*
X34904438Y13310776D02*
X34904438Y13691729D01*
X34904438Y13691729D02*
X34809200Y13882205D01*
X34809200Y13882205D02*
X34713961Y13977443D01*
X34713961Y13977443D02*
X34523485Y14072681D01*
X34523485Y14072681D02*
X32904438Y14072681D01*
X32904438Y14739348D02*
X32904438Y15882205D01*
X34904438Y15310776D02*
X32904438Y15310776D01*
D10*
D11*
X100453633Y-6904938D02*
X101120299Y-8904938D01*
X101120299Y-8904938D02*
X101786966Y-6904938D01*
X102453633Y-8143033D02*
X103977443Y-8143033D01*
X106072680Y-8714461D02*
X105977442Y-8809700D01*
X105977442Y-8809700D02*
X105691728Y-8904938D01*
X105691728Y-8904938D02*
X105501252Y-8904938D01*
X105501252Y-8904938D02*
X105215537Y-8809700D01*
X105215537Y-8809700D02*
X105025061Y-8619223D01*
X105025061Y-8619223D02*
X104929823Y-8428747D01*
X104929823Y-8428747D02*
X104834585Y-8047795D01*
X104834585Y-8047795D02*
X104834585Y-7762080D01*
X104834585Y-7762080D02*
X104929823Y-7381128D01*
X104929823Y-7381128D02*
X105025061Y-7190652D01*
X105025061Y-7190652D02*
X105215537Y-7000176D01*
X105215537Y-7000176D02*
X105501252Y-6904938D01*
X105501252Y-6904938D02*
X105691728Y-6904938D01*
X105691728Y-6904938D02*
X105977442Y-7000176D01*
X105977442Y-7000176D02*
X106072680Y-7095414D01*
X106929823Y-6904938D02*
X106929823Y-8523985D01*
X106929823Y-8523985D02*
X107025061Y-8714461D01*
X107025061Y-8714461D02*
X107120299Y-8809700D01*
X107120299Y-8809700D02*
X107310775Y-8904938D01*
X107310775Y-8904938D02*
X107691728Y-8904938D01*
X107691728Y-8904938D02*
X107882204Y-8809700D01*
X107882204Y-8809700D02*
X107977442Y-8714461D01*
X107977442Y-8714461D02*
X108072680Y-8523985D01*
X108072680Y-8523985D02*
X108072680Y-6904938D01*
X108739347Y-6904938D02*
X109882204Y-6904938D01*
X109310775Y-8904938D02*
X109310775Y-6904938D01*
X-3000000Y-74000500D02*
X97000000Y-74000500D01*
X84000000Y3000000D02*
X84000000Y-85001500D01*
X46000000Y3000000D02*
X46000000Y-85001500D01*
X36000000Y3000000D02*
X36000000Y-85001500D01*
X48000000Y3000000D02*
X48000000Y-85001500D01*
X12000000Y3000000D02*
X12000000Y-85001500D01*
X10000000Y3000000D02*
X10000000Y-85001500D01*
X-3000000Y-8000500D02*
X97000000Y-8000500D01*
X82000000Y3000000D02*
X82000000Y-85001500D01*
X70000000Y3000000D02*
X70000000Y-85001500D01*
X24000000Y3000000D02*
X24000000Y-85001500D01*
X22000000Y3000000D02*
X22000000Y-85001500D01*
X72000000Y3000000D02*
X72000000Y-85001500D01*
X-3000000Y-40000500D02*
X97000000Y-40000500D01*
X60000000Y3000000D02*
X60000000Y-85001500D01*
X58000000Y3000000D02*
X58000000Y-85001500D01*
X-3000000Y-42000500D02*
X97000000Y-42000500D01*
X34000000Y3000000D02*
X34000000Y-85001500D01*
D12*
%TO.P,J2,1,Pin_1*%
%TO.N,Board_5-Net-(J2-Pin_1)*%
X65000000Y-36500500D03*
%TD*%
%TO.P,J1,1,Pin_1*%
%TO.N,Board_9-Net-(J1-Pin_1)*%
X17000000Y-45500500D03*
%TD*%
%TO.P,J2,1,Pin_1*%
%TO.N,Board_12-Net-(J2-Pin_1)*%
X53000000Y-70500500D03*
%TD*%
%TO.P,J1,1,Pin_1*%
%TO.N,Board_11-Net-(J1-Pin_1)*%
X41000000Y-45500500D03*
%TD*%
%TO.P,J2,1,Pin_1*%
%TO.N,Board_11-Net-(J2-Pin_1)*%
X41000000Y-70500500D03*
%TD*%
%TO.P,J2,1,Pin_1*%
%TO.N,Board_8-Net-(J2-Pin_1)*%
X5000000Y-70500500D03*
%TD*%
%TO.P,J2,1,Pin_1*%
%TO.N,Board_0-Net-(J2-Pin_1)*%
X5000000Y-36500500D03*
%TD*%
%TO.P,J2,1,Pin_1*%
%TO.N,Board_10-Net-(J2-Pin_1)*%
X29000000Y-70500500D03*
%TD*%
%TO.P,J1,1,Pin_1*%
%TO.N,Board_13-Net-(J1-Pin_1)*%
X65000000Y-45500500D03*
%TD*%
%TO.P,J1,1,Pin_1*%
%TO.N,Board_4-Net-(J1-Pin_1)*%
X53000000Y-11500500D03*
%TD*%
%TO.P,J2,1,Pin_1*%
%TO.N,Board_6-Net-(J2-Pin_1)*%
X77000000Y-36500500D03*
%TD*%
%TO.P,J2,1,Pin_1*%
%TO.N,Board_13-Net-(J2-Pin_1)*%
X65000000Y-70500500D03*
%TD*%
%TO.P,J2,1,Pin_1*%
%TO.N,Board_15-Net-(J2-Pin_1)*%
X89000000Y-70500500D03*
%TD*%
%TO.P,J1,1,Pin_1*%
%TO.N,Board_6-Net-(J1-Pin_1)*%
X77000000Y-11500500D03*
%TD*%
%TO.P,J2,1,Pin_1*%
%TO.N,Board_9-Net-(J2-Pin_1)*%
X17000000Y-70500500D03*
%TD*%
%TO.P,J1,1,Pin_1*%
%TO.N,Board_0-Net-(J1-Pin_1)*%
X5000000Y-11500500D03*
%TD*%
%TO.P,J1,1,Pin_1*%
%TO.N,Board_3-Net-(J1-Pin_1)*%
X41000000Y-11500500D03*
%TD*%
%TO.P,J1,1,Pin_1*%
%TO.N,Board_10-Net-(J1-Pin_1)*%
X29000000Y-45500500D03*
%TD*%
%TO.P,J1,1,Pin_1*%
%TO.N,Board_14-Net-(J1-Pin_1)*%
X77000000Y-45500500D03*
%TD*%
%TO.P,J1,1,Pin_1*%
%TO.N,Board_2-Net-(J1-Pin_1)*%
X29000000Y-11500500D03*
%TD*%
%TO.P,J2,1,Pin_1*%
%TO.N,Board_14-Net-(J2-Pin_1)*%
X77000000Y-70500500D03*
%TD*%
%TO.P,J1,1,Pin_1*%
%TO.N,Board_5-Net-(J1-Pin_1)*%
X65000000Y-11500500D03*
%TD*%
%TO.P,J2,1,Pin_1*%
%TO.N,Board_3-Net-(J2-Pin_1)*%
X41000000Y-36500500D03*
%TD*%
%TO.P,J2,1,Pin_1*%
%TO.N,Board_2-Net-(J2-Pin_1)*%
X29000000Y-36500500D03*
%TD*%
%TO.P,J1,1,Pin_1*%
%TO.N,Board_1-Net-(J1-Pin_1)*%
X17000000Y-11500500D03*
%TD*%
%TO.P,J2,1,Pin_1*%
%TO.N,Board_4-Net-(J2-Pin_1)*%
X53000000Y-36500500D03*
%TD*%
%TO.P,J1,1,Pin_1*%
%TO.N,Board_12-Net-(J1-Pin_1)*%
X53000000Y-45500500D03*
%TD*%
%TO.P,J1,1,Pin_1*%
%TO.N,Board_7-Net-(J1-Pin_1)*%
X89000000Y-11500500D03*
%TD*%
%TO.P,J2,1,Pin_1*%
%TO.N,Board_1-Net-(J2-Pin_1)*%
X17000000Y-36500500D03*
%TD*%
%TO.P,J2,1,Pin_1*%
%TO.N,Board_7-Net-(J2-Pin_1)*%
X89000000Y-36500500D03*
%TD*%
%TO.P,J1,1,Pin_1*%
%TO.N,Board_8-Net-(J1-Pin_1)*%
X5000000Y-45500500D03*
%TD*%
%TO.P,J1,1,Pin_1*%
%TO.N,Board_15-Net-(J1-Pin_1)*%
X89000000Y-45500500D03*
%TD*%
M02*
