M48
; DRILL file {KiCad 8.0.2} date 2024-06-26T18:14:25+0700
; FORMAT={-:-/ absolute / inch / decimal}
; #@! TF.CreationDate,2024-06-26T18:14:25+07:00
; #@! TF.GenerationSoftware,Kicad,Pcbnew,8.0.2
; #@! TF.FileFunction,Plated,1,2,PTH
FMAT,2
INCH
; #@! TA.AperFunction,Plated,PTH,ComponentDrill
T1C0.0984
%
G90
G05
T1
X0.1969Y-0.4528
X0.1969Y-1.437
X0.1969Y-1.7914
X0.1969Y-2.7756
X0.6693Y-0.4528
X0.6693Y-1.437
X0.6693Y-1.7914
X0.6693Y-2.7756
X1.1417Y-0.4528
X1.1417Y-1.437
X1.1417Y-1.7914
X1.1417Y-2.7756
X1.6142Y-0.4528
X1.6142Y-1.437
X1.6142Y-1.7914
X1.6142Y-2.7756
X2.0866Y-0.4528
X2.0866Y-1.437
X2.0866Y-1.7914
X2.0866Y-2.7756
X2.5591Y-0.4528
X2.5591Y-1.437
X2.5591Y-1.7914
X2.5591Y-2.7756
X3.0315Y-0.4528
X3.0315Y-1.437
X3.0315Y-1.7914
X3.0315Y-2.7756
X3.5039Y-0.4528
X3.5039Y-1.437
X3.5039Y-1.7914
X3.5039Y-2.7756
M30
